<?xml version="1.0" encoding="UTF-8"?>
<svg id="Capa_1" xmlns="http://www.w3.org/2000/svg" version="1.1" viewBox="0 0 360 360">
  <!-- Generator: Adobe Illustrator 29.6.1, SVG Export Plug-In . SVG Version: 2.1.1 Build 9)  -->
  <defs>
    <style>
      .st0 {
        fill: #fff;
      }
    </style>
  </defs>
  <polygon points=".12 .12 .12 359.73 359.88 359.88 359.88 .12 .12 .12"/>
  <g>
    <polygon class="st0" points="114.33 288.33 114.33 289.3 109.52 289.3 109.52 292.05 114.01 292.05 114.01 293.02 109.52 293.02 109.52 296.01 114.37 296.01 114.37 296.97 108.37 296.97 108.37 288.33 114.33 288.33"/>
    <g>
      <path class="st0" d="M119.37,296.97v-.99h-.02c-.22.39-.5.67-.83.85-.34.18-.74.27-1.2.27-.41,0-.75-.05-1.03-.16-.27-.11-.5-.26-.67-.47-.17-.2-.29-.44-.36-.72s-.1-.59-.1-.93v-4.12h1.03v4.24c0,.39.11.69.34.92.23.23.54.34.93.34.32,0,.59-.05.82-.15s.42-.23.57-.41.27-.39.34-.62c.08-.24.11-.5.11-.78v-3.53h1.03v6.26h-.97.01Z"/>
      <path class="st0" d="M122.24,295.58c.1.16.22.28.38.38.16.09.33.16.53.2s.4.06.61.06c.16,0,.33-.01.51-.04.18-.02.34-.07.49-.13s.27-.16.37-.28c.1-.13.14-.29.14-.48,0-.27-.1-.47-.3-.6-.2-.14-.45-.25-.76-.33-.3-.08-.63-.16-.99-.23s-.68-.17-.99-.29-.56-.3-.76-.53c-.2-.23-.3-.54-.3-.94,0-.31.07-.58.21-.81s.32-.41.54-.55c.22-.14.47-.25.75-.31.28-.07.56-.1.83-.1.35,0,.68.03.98.09s.56.17.79.31c.23.15.41.35.55.61.14.25.22.57.24.95h-1.03c-.02-.2-.07-.37-.16-.5-.09-.13-.2-.24-.34-.32-.14-.08-.29-.14-.45-.18-.17-.04-.33-.06-.5-.06-.15,0-.31.01-.47.04-.16.02-.3.07-.43.13s-.23.14-.31.24c-.08.1-.12.23-.12.39,0,.18.06.32.19.44.12.12.28.21.48.29.19.08.41.14.65.19s.48.11.73.16c.26.06.51.12.76.21s.46.19.65.32.34.3.46.5.18.45.18.75c0,.38-.08.69-.24.94-.16.25-.36.45-.62.6-.25.15-.54.26-.86.32s-.64.09-.95.09c-.35,0-.68-.04-.99-.11-.31-.07-.59-.19-.83-.36-.24-.17-.43-.38-.58-.65s-.23-.6-.24-.99h1.03c0,.23.06.42.16.57"/>
    </g>
    <polygon class="st0" points="128.15 288.33 128.15 293.45 131.01 290.72 132.39 290.72 129.91 292.99 132.57 296.97 131.26 296.97 129.12 293.71 128.15 294.6 128.15 296.97 127.13 296.97 127.13 288.33 128.15 288.33"/>
    <path class="st0" d="M136.78,293.74c-.13.1-.3.17-.51.21-.21.04-.43.08-.66.11-.23.03-.46.06-.7.1-.23.04-.44.09-.63.17-.19.08-.34.19-.45.34-.12.15-.18.35-.18.61,0,.17.03.31.1.43s.16.21.27.28.24.12.38.16c.15.03.3.05.46.05.34,0,.63-.05.87-.14.24-.09.44-.21.59-.35s.27-.29.34-.46c.07-.17.11-.32.11-.46v-1.05h0ZM138.45,296.95c-.18.11-.42.16-.74.16-.27,0-.48-.07-.63-.22-.16-.15-.24-.39-.24-.73-.28.34-.61.58-.99.73-.38.15-.78.22-1.22.22-.28,0-.55-.03-.8-.1-.25-.06-.47-.17-.66-.3-.19-.14-.33-.32-.44-.54s-.16-.49-.16-.8c0-.36.06-.65.18-.87s.28-.41.48-.55c.2-.14.42-.25.68-.32.25-.07.51-.13.78-.18.28-.06.55-.1.8-.13s.48-.07.67-.12.35-.13.46-.23.17-.25.17-.44c0-.23-.04-.41-.13-.54-.09-.14-.19-.24-.33-.31-.13-.07-.28-.12-.45-.15-.17-.02-.33-.04-.49-.04-.43,0-.8.08-1.09.25s-.45.48-.47.94h-1.03c.02-.39.1-.71.24-.98.14-.27.34-.48.58-.65.24-.17.52-.28.83-.36.31-.07.64-.11,1-.11.28,0,.56.02.84.06s.53.12.76.25c.23.12.41.3.54.53.14.22.21.52.21.88v3.21c0,.24,0,.42.04.53s.12.17.28.17c.09,0,.19-.02.32-.05v.8h.01Z"/>
    <rect class="st0" x="139.03" y="288.33" width="1.03" height="8.64"/>
    <polygon class="st0" points="145.47 288.33 145.47 292.05 150.02 292.05 150.02 288.33 151.17 288.33 151.17 296.97 150.02 296.97 150.02 293.02 145.47 293.02 145.47 296.97 144.32 296.97 144.32 288.33 145.47 288.33"/>
    <g>
      <path class="st0" d="M156.64,292.56c-.09-.22-.22-.4-.38-.56s-.34-.28-.56-.38c-.21-.09-.45-.14-.71-.14s-.51.05-.72.14c-.21.09-.4.22-.55.38-.15.16-.27.35-.36.56s-.14.44-.16.68h3.59c-.02-.24-.07-.47-.16-.69M156.88,296.57c-.47.36-1.06.53-1.77.53-.5,0-.93-.08-1.3-.24-.37-.16-.68-.39-.93-.68-.25-.29-.44-.64-.56-1.04-.13-.4-.2-.84-.21-1.32,0-.48.07-.91.22-1.31.14-.4.35-.74.61-1.03s.57-.52.93-.68c.36-.16.75-.24,1.18-.24.56,0,1.02.12,1.39.35s.66.52.88.88c.22.36.38.74.46,1.16.09.42.12.82.1,1.2h-4.68c0,.27.02.53.1.78.07.25.19.46.35.65s.37.34.62.45.54.17.88.17c.44,0,.79-.1,1.07-.3.28-.2.46-.51.55-.92h1.02c-.14.7-.44,1.23-.91,1.58"/>
      <path class="st0" d="M159.45,290.72v1.32h.02c.25-.51.56-.88.92-1.12s.82-.35,1.38-.34v1.09c-.41,0-.76.06-1.05.17-.29.11-.53.28-.7.5-.18.22-.31.48-.39.79s-.12.67-.12,1.07v2.78h-1.03v-6.26h.97,0Z"/>
      <path class="st0" d="M163.04,290.72v1.32h.02c.25-.51.56-.88.92-1.12s.82-.35,1.38-.34v1.09c-.41,0-.76.06-1.05.17-.29.11-.53.28-.7.5-.18.22-.31.48-.39.79s-.12.67-.12,1.07v2.78h-1.03v-6.26h.97,0Z"/>
    </g>
    <path class="st0" d="M166.79,296.97h-1.03v-6.26h1.03v6.26ZM165.77,288.33h1.03v1.26h-1.03v-1.26Z"/>
    <polygon class="st0" points="169.05 288.33 169.05 293.45 171.9 290.72 173.28 290.72 170.8 292.99 173.46 296.97 172.16 296.97 170.01 293.71 169.05 294.6 169.05 296.97 168.02 296.97 168.02 288.33 169.05 288.33"/>
    <g>
      <path class="st0" d="M174.7,294.86c.1.29.24.54.42.74.18.2.39.35.62.45.24.1.49.16.76.16s.52-.05.76-.16c.24-.1.45-.26.62-.45.18-.2.32-.44.42-.74.1-.29.15-.63.15-1.01s-.05-.72-.15-1.01c-.1-.29-.24-.54-.42-.74-.18-.2-.39-.36-.62-.46-.24-.11-.49-.16-.76-.16s-.52.05-.76.16c-.24.1-.44.26-.62.46-.18.2-.32.45-.42.74-.1.29-.15.63-.15,1.01s.05.72.15,1.01M173.66,292.56c.13-.4.32-.75.58-1.04s.58-.53.96-.7.82-.25,1.31-.25.94.08,1.31.25c.38.17.69.4.95.7.26.29.45.64.58,1.04s.19.83.19,1.29-.06.89-.19,1.28c-.13.39-.32.74-.58,1.03s-.57.52-.95.69-.81.25-1.31.25-.93-.08-1.31-.25-.7-.4-.96-.69c-.26-.29-.45-.64-.58-1.03-.13-.4-.19-.82-.19-1.28s.06-.89.19-1.29"/>
      <path class="st0" d="M189.43,296.34c-.59.55-1.43.83-2.52.83s-1.98-.26-2.61-.79c-.62-.53-.94-1.37-.94-2.52v-5.52h1.15v5.52c0,.77.21,1.36.62,1.76.41.4,1,.6,1.78.6.73,0,1.29-.2,1.68-.6.38-.4.57-.99.57-1.76v-5.52h1.15v5.52c0,1.1-.29,1.93-.88,2.49"/>
      <path class="st0" d="M192.51,290.72v.99h.02c.43-.76,1.11-1.14,2.03-1.14.41,0,.76.06,1.03.17.27.11.5.27.67.47s.29.44.36.72.1.59.1.93v4.11h-1.03v-4.24c0-.39-.11-.69-.34-.92-.23-.22-.54-.34-.93-.34-.32,0-.59.05-.82.15-.23.1-.42.23-.57.41-.15.18-.27.39-.34.62-.08.24-.12.5-.12.78v3.53h-1.03v-6.26h.97v.02Z"/>
    </g>
    <path class="st0" d="M198.93,296.97h-1.03v-6.26h1.03v6.26ZM197.9,288.33h1.03v1.26h-1.03v-1.26Z"/>
    <g>
      <path class="st0" d="M204.85,292.94c-.08-.28-.19-.53-.35-.75s-.36-.39-.6-.52-.53-.19-.87-.19-.64.07-.88.21c-.24.14-.44.32-.59.54s-.26.47-.33.76c-.07.28-.1.57-.1.86,0,.31.04.6.11.89s.19.54.34.76c.16.22.36.39.61.53.25.13.55.2.91.2s.65-.07.89-.21c.24-.14.43-.32.57-.54.15-.23.25-.48.31-.78.07-.29.1-.59.1-.9,0-.29-.04-.57-.12-.85M201.15,288.33v3.23h.02c.17-.35.44-.6.8-.76s.76-.24,1.2-.24c.48,0,.91.09,1.26.27.36.18.66.42.9.72.24.3.42.65.54,1.05.12.39.18.82.18,1.26s-.06.86-.17,1.26c-.12.4-.29.74-.53,1.03-.24.3-.54.53-.9.7s-.78.25-1.25.25c-.15,0-.33-.02-.51-.05-.19-.03-.38-.08-.56-.16-.19-.07-.36-.17-.53-.3-.17-.12-.3-.28-.42-.47h-.02v.83h-1.03v-8.64h1.03v.02Z"/>
      <path class="st0" d="M211.01,292.56c-.09-.22-.22-.4-.38-.56s-.34-.28-.56-.38c-.21-.09-.45-.14-.71-.14s-.51.05-.72.14c-.21.09-.4.22-.55.38-.15.16-.27.35-.36.56s-.14.44-.16.68h3.59c-.02-.24-.07-.47-.16-.69M211.26,296.57c-.47.36-1.06.53-1.77.53-.5,0-.93-.08-1.3-.24-.37-.16-.68-.39-.93-.68-.25-.29-.44-.64-.56-1.04-.13-.4-.2-.84-.21-1.32,0-.48.07-.91.22-1.31.14-.4.35-.74.61-1.03s.57-.52.93-.68c.36-.16.75-.24,1.18-.24.56,0,1.02.12,1.39.35s.66.52.88.88c.22.36.38.74.46,1.16s.12.82.1,1.2h-4.68c0,.27.02.53.1.78.07.25.19.46.35.65s.37.34.62.45.55.17.88.17c.43,0,.79-.1,1.07-.3.28-.2.46-.51.55-.92h1.02c-.14.7-.44,1.23-.91,1.58"/>
      <path class="st0" d="M213.82,290.72v1.32h.02c.25-.51.56-.88.92-1.12s.82-.35,1.38-.34v1.09c-.41,0-.76.06-1.05.17-.29.11-.53.28-.7.5-.18.22-.31.48-.39.79s-.12.67-.12,1.07v2.78h-1.03v-6.26h.97,0Z"/>
      <path class="st0" d="M219.16,290.72v.91h-1.25v3.88c0,.12,0,.22.03.29.02.07.06.13.11.17.06.04.14.07.24.08.1.01.23.02.39.02h.47v.91h-.79c-.27,0-.49-.02-.68-.05-.19-.04-.34-.1-.46-.2-.12-.1-.2-.23-.26-.41s-.09-.41-.09-.7v-3.98h-1.07v-.91h1.07v-1.88h1.03v1.88h1.26Z"/>
      <path class="st0" d="M220.65,295.58c.1.16.22.28.38.38.16.09.33.16.53.2s.4.06.61.06c.16,0,.33-.01.51-.04.18-.02.34-.07.49-.13.15-.06.27-.16.37-.28.1-.13.14-.29.14-.48,0-.27-.1-.47-.3-.6-.2-.14-.45-.25-.76-.33-.3-.08-.63-.16-.99-.23-.35-.07-.68-.17-.99-.29-.3-.12-.56-.3-.76-.53s-.3-.54-.3-.94c0-.31.07-.58.21-.81s.32-.41.54-.55c.22-.14.47-.25.75-.31.28-.07.55-.1.83-.1.35,0,.68.03.98.09s.56.17.79.31c.23.15.41.35.55.61.14.25.22.57.24.95h-1.03c-.02-.2-.07-.37-.16-.5s-.2-.24-.34-.32c-.14-.08-.29-.14-.45-.18-.17-.04-.33-.06-.5-.06-.15,0-.31.01-.47.04-.16.02-.3.07-.43.13-.13.06-.23.14-.31.24-.08.1-.12.23-.12.39,0,.18.06.32.19.44.12.12.28.21.48.29.19.08.41.14.65.19.24.05.48.11.73.16.26.06.51.12.76.21s.46.19.65.32c.19.13.34.3.46.5.12.2.18.45.18.75,0,.38-.08.69-.24.94s-.36.45-.62.6c-.25.15-.54.26-.86.32s-.63.09-.95.09c-.35,0-.68-.04-.99-.11-.31-.07-.59-.19-.83-.36s-.44-.38-.58-.65c-.15-.27-.23-.6-.24-.99h1.03c0,.23.06.42.16.57"/>
    </g>
    <path class="st0" d="M226.57,296.97h-1.03v-6.26h1.03v6.26ZM225.54,288.33h1.03v1.26h-1.03v-1.26Z"/>
    <g>
      <path class="st0" d="M230.4,290.72v.91h-1.25v3.88c0,.12,0,.22.03.29s.06.13.11.17c.06.04.14.07.24.08.1.01.23.02.39.02h.47v.91h-.79c-.27,0-.49-.02-.68-.05-.19-.04-.34-.1-.46-.2-.12-.1-.2-.23-.26-.41s-.09-.41-.09-.7v-3.98h-1.07v-.91h1.07v-1.88h1.03v1.88h1.26Z"/>
      <path class="st0" d="M234.98,293.74c-.13.1-.3.17-.51.21-.21.04-.43.08-.66.11-.23.03-.46.06-.7.1-.23.04-.44.09-.63.17-.19.08-.34.19-.45.34-.12.15-.18.35-.18.61,0,.17.03.31.1.43s.16.21.27.28.24.12.38.16c.15.03.3.05.46.05.34,0,.63-.05.87-.14.24-.09.44-.21.59-.35s.27-.29.34-.46c.07-.17.11-.32.11-.46v-1.05h0ZM236.65,296.95c-.18.11-.42.16-.74.16-.27,0-.48-.07-.64-.22s-.24-.39-.24-.73c-.28.34-.61.58-.99.73-.38.15-.78.22-1.22.22-.28,0-.55-.03-.8-.1-.25-.06-.47-.17-.66-.3-.19-.14-.33-.32-.44-.54s-.16-.49-.16-.8c0-.36.06-.65.18-.87s.28-.41.48-.55c.2-.14.42-.25.68-.32.25-.07.51-.13.78-.18.28-.06.55-.1.8-.13s.48-.07.67-.12.35-.13.46-.23.17-.25.17-.44c0-.23-.04-.41-.13-.54-.09-.14-.19-.24-.33-.31-.13-.07-.28-.12-.45-.15-.16-.02-.33-.04-.49-.04-.43,0-.8.08-1.09.25s-.45.48-.47.94h-1.03c.02-.39.1-.71.24-.98.15-.27.34-.48.58-.65.24-.17.52-.28.83-.36.31-.07.64-.11,1-.11.28,0,.56.02.84.06s.53.12.76.25c.23.12.41.3.55.53.14.22.2.52.2.88v3.21c0,.24,0,.42.04.53s.12.17.28.17c.09,0,.19-.02.32-.05v.8h.02Z"/>
      <path class="st0" d="M239.84,290.72v.91h-1.25v3.88c0,.12,0,.22.03.29.02.07.06.13.11.17.06.04.14.07.24.08.1.01.23.02.39.02h.47v.91h-.79c-.27,0-.49-.02-.68-.05-.19-.04-.34-.1-.46-.2-.12-.1-.2-.23-.26-.41s-.09-.41-.09-.7v-3.98h-1.07v-.91h1.07v-1.88h1.03v1.88h1.26Z"/>
      <path class="st0" d="M244.72,292.56c-.09-.22-.22-.4-.38-.56s-.34-.28-.56-.38c-.21-.09-.45-.14-.71-.14s-.51.05-.72.14c-.21.09-.4.22-.55.38-.15.16-.27.35-.36.56s-.14.44-.16.68h3.59c-.02-.24-.07-.47-.16-.69M244.97,296.57c-.47.36-1.06.53-1.77.53-.5,0-.93-.08-1.3-.24-.37-.16-.68-.39-.93-.68-.25-.29-.44-.64-.56-1.04s-.2-.84-.21-1.32c0-.48.07-.91.22-1.31.14-.4.35-.74.61-1.03s.57-.52.93-.68c.36-.16.75-.24,1.18-.24.56,0,1.02.12,1.39.35s.66.52.88.88c.22.36.38.74.46,1.16s.12.82.1,1.2h-4.68c0,.27.02.53.1.78.07.25.19.46.35.65s.37.34.62.45.54.17.88.17c.43,0,.79-.1,1.07-.3.28-.2.46-.51.55-.92h1.02c-.14.7-.44,1.23-.91,1.58"/>
      <path class="st0" d="M250.48,293.74c-.13.1-.3.17-.51.21-.21.04-.43.08-.66.11-.23.03-.46.06-.7.1-.23.04-.44.09-.63.17-.19.08-.34.19-.45.34-.12.15-.18.35-.18.61,0,.17.04.31.1.43.07.12.16.21.27.28s.24.12.38.16c.15.03.3.05.46.05.34,0,.63-.05.87-.14.24-.09.44-.21.59-.35s.27-.29.34-.46c.07-.17.11-.32.11-.46v-1.05h0ZM252.15,296.95c-.18.11-.42.16-.74.16-.27,0-.48-.07-.64-.22s-.24-.39-.24-.73c-.28.34-.61.58-.99.73-.38.15-.78.22-1.22.22-.28,0-.55-.03-.8-.1-.25-.06-.47-.17-.66-.3-.19-.14-.33-.32-.44-.54s-.16-.49-.16-.8c0-.36.06-.65.18-.87s.28-.41.48-.55c.2-.14.42-.25.68-.32.25-.07.51-.13.78-.18.28-.06.55-.1.8-.13s.48-.07.67-.12.35-.13.46-.23.17-.25.17-.44c0-.23-.04-.41-.13-.54-.09-.14-.19-.24-.33-.31-.13-.07-.28-.12-.45-.15-.16-.02-.33-.04-.49-.04-.44,0-.8.08-1.09.25s-.45.48-.47.94h-1.03c.02-.39.1-.71.24-.98.15-.27.34-.48.58-.65.24-.17.52-.28.83-.36.31-.07.64-.11,1-.11.28,0,.56.02.84.06s.53.12.76.25c.23.12.41.3.55.53.14.22.2.52.2.88v3.21c0,.24,0,.42.04.53s.12.17.28.17c.09,0,.19-.02.32-.05v.8h.02Z"/>
      <path class="st0" d="M114.38,308.98c-.59.55-1.43.83-2.52.83s-1.98-.26-2.61-.79c-.62-.53-.94-1.37-.94-2.52v-5.52h1.15v5.52c0,.77.21,1.36.62,1.76.41.4,1,.6,1.78.6.73,0,1.29-.2,1.68-.6.38-.4.57-.99.57-1.76v-5.52h1.15v5.52c0,1.1-.29,1.93-.88,2.49"/>
      <path class="st0" d="M117.47,303.36v.99h.02c.43-.76,1.11-1.14,2.03-1.14.41,0,.75.06,1.03.17.27.11.5.27.67.47s.29.44.36.72.1.59.1.93v4.11h-1.03v-4.24c0-.39-.11-.69-.34-.92-.23-.22-.54-.34-.93-.34-.32,0-.59.05-.82.15s-.42.23-.57.41-.27.39-.34.62c-.08.24-.12.5-.12.78v3.53h-1.03v-6.26h.97v.02Z"/>
    </g>
    <path class="st0" d="M123.88,309.61h-1.03v-6.26h1.03v6.26ZM122.85,300.97h1.03v1.26h-1.03v-1.26Z"/>
    <polygon class="st0" points="126.76 309.61 124.44 303.36 125.59 303.36 127.34 308.57 127.37 308.57 129.07 303.36 130.15 303.36 127.86 309.61 126.76 309.61"/>
    <g>
      <path class="st0" d="M134.84,305.2c-.09-.22-.22-.4-.38-.56s-.34-.28-.56-.38c-.21-.09-.45-.14-.71-.14s-.51.05-.72.14c-.21.09-.4.22-.55.38-.15.16-.27.35-.36.56s-.14.44-.16.68h3.59c-.02-.24-.07-.47-.16-.69M135.09,309.21c-.47.36-1.06.53-1.77.53-.5,0-.93-.08-1.3-.24-.37-.16-.68-.39-.93-.68-.25-.29-.44-.64-.56-1.04-.13-.4-.2-.84-.21-1.32,0-.48.07-.91.22-1.31.14-.4.35-.74.61-1.03s.57-.52.93-.68c.36-.16.75-.24,1.18-.24.56,0,1.02.12,1.39.35s.66.52.88.88.38.74.46,1.16.12.82.1,1.2h-4.68c0,.27.02.53.1.78.07.25.19.46.35.65s.37.34.62.45.55.17.88.17c.43,0,.79-.1,1.07-.3.28-.2.46-.51.55-.92h1.02c-.14.7-.44,1.23-.91,1.58"/>
      <path class="st0" d="M137.65,303.36v1.32h.02c.25-.51.56-.88.92-1.12s.82-.35,1.38-.34v1.09c-.41,0-.76.06-1.05.17-.29.11-.53.28-.7.5-.18.22-.31.48-.39.79s-.12.67-.12,1.07v2.78h-1.03v-6.26h.97,0Z"/>
      <path class="st0" d="M141.1,308.22c.1.16.22.28.38.38.16.09.33.16.53.2s.4.06.61.06c.16,0,.33-.01.51-.04.18-.02.34-.07.49-.13.15-.06.27-.16.37-.28.1-.12.15-.28.15-.48,0-.27-.1-.47-.3-.6-.2-.14-.45-.25-.76-.33-.3-.08-.63-.16-.99-.23-.35-.07-.68-.17-.99-.29-.3-.12-.56-.3-.76-.53s-.3-.54-.3-.94c0-.31.07-.58.21-.81s.32-.41.54-.55c.22-.14.47-.25.75-.31.28-.07.55-.1.83-.1.35,0,.68.03.98.09s.56.17.79.31c.23.15.41.35.55.6s.22.57.24.95h-1.03c-.02-.2-.07-.37-.16-.5s-.2-.24-.34-.32c-.14-.08-.29-.14-.45-.18-.17-.04-.33-.06-.5-.06-.15,0-.31.01-.47.04-.16.02-.3.07-.43.13-.13.06-.23.14-.31.24-.08.1-.12.23-.12.39,0,.18.06.32.19.44s.28.21.48.29c.19.08.41.14.65.19.24.05.48.11.73.16.26.06.51.12.76.21s.46.19.65.32c.19.13.34.3.46.5.12.2.18.45.18.75,0,.38-.08.69-.24.94s-.36.45-.62.61c-.25.15-.54.26-.86.32s-.64.09-.95.09c-.35,0-.68-.04-.99-.11-.31-.07-.59-.19-.83-.36s-.43-.38-.58-.65c-.15-.27-.23-.6-.24-.99h1.03c0,.23.06.42.16.57"/>
    </g>
    <path class="st0" d="M147.02,309.61h-1.03v-6.26h1.03v6.26ZM145.99,300.97h1.03v1.26h-1.03v-1.26Z"/>
    <g>
      <path class="st0" d="M149.05,307.39c.08.28.19.53.35.74.16.22.36.39.6.52.25.13.53.19.87.19s.64-.07.88-.21.44-.32.59-.54.26-.47.33-.76c.07-.28.1-.57.1-.86,0-.31-.04-.6-.11-.89s-.19-.54-.35-.76-.36-.39-.61-.53c-.25-.13-.55-.2-.91-.2s-.64.07-.88.21c-.24.14-.43.32-.58.54-.15.23-.25.48-.31.78-.07.29-.1.59-.1.9s.04.58.12.85M152.74,309.61v-.85h-.02c-.17.35-.44.6-.8.75s-.76.23-1.2.23c-.48,0-.91-.09-1.26-.27-.36-.18-.66-.42-.9-.71-.24-.3-.42-.65-.54-1.04-.12-.4-.18-.82-.18-1.26s.06-.86.17-1.26c.12-.4.29-.74.53-1.03s.54-.53.9-.7.78-.26,1.25-.26c.16,0,.34.02.52.05.19.03.37.09.56.16.18.08.36.18.53.3.17.13.3.28.42.47h.02v-3.22h1.03v8.64h-1.03Z"/>
      <path class="st0" d="M158.8,306.38c-.13.1-.3.17-.51.21-.21.04-.43.08-.66.11-.23.03-.46.06-.7.1-.23.04-.44.09-.63.17-.19.08-.34.19-.45.34-.12.15-.18.35-.18.61,0,.17.03.31.1.43s.16.21.27.28.24.12.38.16c.15.03.3.05.46.05.34,0,.63-.05.87-.14.24-.09.44-.21.59-.35s.27-.29.34-.46c.07-.16.11-.32.11-.46v-1.05h0ZM160.47,309.59c-.18.11-.42.16-.74.16-.27,0-.48-.07-.63-.22-.16-.15-.24-.39-.24-.73-.28.34-.61.58-.99.73-.38.15-.78.22-1.22.22-.28,0-.55-.03-.8-.1-.25-.06-.47-.17-.66-.3-.19-.14-.33-.32-.44-.54s-.16-.49-.16-.8c0-.35.06-.65.18-.87.12-.23.28-.41.48-.55.2-.14.42-.25.68-.32.25-.07.51-.13.78-.18.28-.06.55-.1.8-.13s.48-.07.67-.12.35-.13.46-.23.17-.25.17-.44c0-.23-.04-.41-.13-.55-.09-.14-.19-.24-.33-.31-.13-.07-.28-.12-.45-.15-.17-.02-.33-.04-.49-.04-.43,0-.8.08-1.09.25s-.45.48-.47.94h-1.03c.02-.39.1-.71.24-.98.14-.27.34-.48.58-.65.24-.17.52-.28.83-.36.31-.07.64-.11,1-.11.28,0,.56.02.84.06s.53.12.76.25c.23.12.41.3.54.53.14.23.21.52.21.88v3.21c0,.24,0,.42.04.53s.12.17.29.17c.09,0,.19-.02.31-.05v.8h.01Z"/>
      <path class="st0" d="M161.85,307.39c.08.28.19.53.35.74.16.22.36.39.6.52.25.13.53.19.87.19s.64-.07.88-.21.44-.32.59-.54.26-.47.33-.76c.07-.28.1-.57.1-.86,0-.31-.04-.6-.11-.89s-.19-.54-.35-.76-.36-.39-.61-.53c-.25-.13-.55-.2-.91-.2s-.64.07-.88.21c-.24.14-.43.32-.58.54-.15.23-.25.48-.31.78-.07.29-.1.59-.1.9s.04.58.12.85M165.55,309.61v-.85h-.02c-.17.35-.44.6-.8.75s-.76.23-1.2.23c-.48,0-.91-.09-1.26-.27-.36-.18-.66-.42-.9-.71-.24-.3-.42-.65-.54-1.04-.12-.4-.18-.82-.18-1.26s.06-.86.17-1.26c.12-.4.29-.74.53-1.03s.54-.53.9-.7.78-.26,1.25-.26c.16,0,.34.02.52.05.19.03.37.09.56.16.18.08.36.18.53.3.17.13.3.28.42.47h.02v-3.22h1.03v8.64h-1.03Z"/>
      <path class="st0" d="M171.52,307.39c.08.28.19.53.35.74.16.22.36.39.6.52.25.13.53.19.87.19s.64-.07.88-.21c.24-.14.44-.32.59-.54s.26-.47.33-.76c.07-.28.1-.57.1-.86,0-.31-.04-.6-.11-.89s-.19-.54-.34-.76c-.16-.22-.36-.39-.61-.53-.25-.13-.55-.2-.91-.2s-.64.07-.88.21c-.24.14-.44.32-.58.54-.15.23-.25.48-.31.78-.07.29-.1.59-.1.9s.04.58.12.85M175.22,309.61v-.85h-.02c-.17.35-.44.6-.8.75s-.76.23-1.2.23c-.48,0-.91-.09-1.26-.27-.36-.18-.66-.42-.9-.71-.24-.3-.42-.65-.54-1.04-.12-.4-.18-.82-.18-1.26s.06-.86.17-1.26c.12-.4.29-.74.53-1.03s.54-.53.9-.7.78-.26,1.25-.26c.16,0,.33.02.52.05s.37.09.56.16c.18.08.36.18.53.3.17.13.3.28.42.47h.02v-3.22h1.03v8.64h-1.03Z"/>
      <path class="st0" d="M181.58,305.2c-.09-.22-.22-.4-.38-.56s-.34-.28-.56-.38c-.21-.09-.45-.14-.71-.14s-.51.05-.72.14c-.21.09-.4.22-.55.38-.15.16-.28.35-.36.56-.09.21-.14.44-.16.68h3.59c-.02-.24-.07-.47-.16-.69M181.83,309.21c-.47.36-1.06.53-1.77.53-.5,0-.93-.08-1.3-.24-.37-.16-.68-.39-.93-.68-.25-.29-.44-.64-.56-1.04-.13-.4-.2-.84-.21-1.32,0-.48.07-.91.22-1.31.14-.4.35-.74.61-1.03s.57-.52.93-.68c.36-.16.75-.24,1.18-.24.56,0,1.02.12,1.39.35s.66.52.88.88.38.74.46,1.16.12.82.1,1.2h-4.68c0,.27.02.53.1.78.07.25.19.46.35.65s.37.34.62.45.54.17.88.17c.44,0,.79-.1,1.07-.3.28-.2.46-.51.55-.92h1.02c-.14.7-.44,1.23-.91,1.58"/>
    </g>
    <rect class="st0" x="183.52" y="300.97" width="1.03" height="8.64"/>
    <g>
      <path class="st0" d="M192.21,305.11c.65,0,1.13-.12,1.43-.4.3-.28.45-.67.45-1.19s-.15-.91-.45-1.18-.78-.41-1.43-.41h-2.25v3.17h2.25ZM192.6,300.97c.87,0,1.53.22,1.98.67s.67,1.08.67,1.88-.22,1.44-.67,1.89-1.11.67-1.98.67h-2.64v3.53h-1.15v-8.64h3.79Z"/>
      <path class="st0" d="M199.92,306.38c-.13.1-.3.17-.51.21-.21.04-.43.08-.66.11-.23.03-.46.06-.7.1-.23.04-.44.09-.63.17-.19.08-.34.19-.45.34-.12.15-.18.35-.18.61,0,.17.03.31.1.43s.16.21.27.28.24.12.38.16c.15.03.3.05.46.05.34,0,.63-.05.87-.14.24-.09.44-.21.59-.35s.27-.29.34-.46c.07-.16.11-.32.11-.46v-1.05h0ZM201.59,309.59c-.18.11-.42.16-.74.16-.27,0-.48-.07-.64-.22s-.24-.39-.24-.73c-.28.34-.61.58-.99.73-.38.15-.78.22-1.22.22-.28,0-.55-.03-.8-.1-.25-.06-.47-.17-.66-.3-.19-.14-.33-.32-.44-.54s-.16-.49-.16-.8c0-.35.06-.65.18-.87.12-.23.28-.41.48-.55.2-.14.42-.25.68-.32.25-.07.51-.13.78-.18.28-.06.55-.1.8-.13s.48-.07.67-.12.35-.13.46-.23.17-.25.17-.44c0-.23-.04-.41-.13-.55-.09-.14-.19-.24-.33-.31-.13-.07-.28-.12-.45-.15-.17-.02-.33-.04-.49-.04-.43,0-.8.08-1.09.25s-.45.48-.47.94h-1.03c.02-.39.1-.71.24-.98.15-.27.34-.48.58-.65.24-.17.52-.28.83-.36.31-.07.64-.11,1-.11.28,0,.56.02.84.06s.53.12.76.25c.23.12.41.3.55.53s.21.52.21.88v3.21c0,.24,0,.42.04.53s.12.17.28.17c.09,0,.19-.02.32-.05v.8h.01Z"/>
    </g>
    <path class="st0" d="M202.17,309.61h1.03v-6.26h-1.03v6.26ZM204.42,300.3l-1.71,1.96h-.77l1.16-1.96h1.32Z"/>
    <path class="st0" d="M205.15,308.22c.1.16.22.28.38.38.16.09.33.16.53.2s.4.06.61.06c.16,0,.33-.01.51-.04.18-.02.34-.07.49-.13.15-.06.27-.16.37-.28s.14-.28.14-.48c0-.27-.1-.47-.3-.6-.2-.14-.45-.25-.76-.33-.3-.08-.63-.16-.99-.23-.35-.07-.68-.17-.99-.29-.3-.12-.56-.3-.76-.53s-.3-.54-.3-.94c0-.31.07-.58.21-.81s.32-.41.54-.55c.22-.14.47-.25.75-.31.28-.07.55-.1.83-.1.35,0,.68.03.98.09s.56.17.79.31c.23.15.41.35.55.6s.22.57.24.95h-1.03c-.02-.2-.07-.37-.16-.5s-.2-.24-.34-.32c-.14-.08-.29-.14-.45-.18-.17-.04-.33-.06-.5-.06-.15,0-.31.01-.47.04-.16.02-.3.07-.43.13-.13.06-.23.14-.31.24-.08.1-.12.23-.12.39,0,.18.06.32.19.44s.28.21.48.29c.19.08.41.14.65.19.24.05.48.11.73.16.26.06.51.12.76.21s.46.19.65.32c.19.13.34.3.46.5.12.2.18.45.18.75,0,.38-.08.69-.24.94s-.36.45-.62.61c-.25.15-.54.26-.86.32s-.63.09-.95.09c-.35,0-.68-.04-.99-.11-.31-.07-.59-.19-.83-.36s-.44-.38-.58-.65c-.15-.27-.23-.6-.24-.99h1.03c0,.23.06.42.16.57"/>
    <polygon class="st0" points="215.17 309.61 212.13 300.97 213.36 300.97 215.83 308.46 215.86 308.46 218.35 300.97 219.55 300.97 216.47 309.61 215.17 309.61"/>
    <g>
      <path class="st0" d="M223.07,306.38c-.13.1-.3.17-.51.21-.21.04-.43.08-.66.11-.23.03-.46.06-.7.1-.23.04-.44.09-.63.17-.19.08-.34.19-.45.34-.12.15-.18.35-.18.61,0,.17.03.31.1.43s.16.21.27.28.24.12.38.16c.15.03.3.05.46.05.34,0,.63-.05.87-.14.24-.09.44-.21.59-.35s.27-.29.34-.46c.07-.16.11-.32.11-.46v-1.05h0ZM224.74,309.59c-.18.11-.42.16-.74.16-.27,0-.48-.07-.64-.22s-.24-.39-.24-.73c-.28.34-.61.58-.99.73-.38.15-.78.22-1.22.22-.28,0-.55-.03-.8-.1-.25-.06-.47-.17-.66-.3-.19-.14-.33-.32-.44-.54s-.16-.49-.16-.8c0-.35.06-.65.18-.87.12-.23.28-.41.48-.55.2-.14.42-.25.68-.32.25-.07.51-.13.78-.18.28-.06.55-.1.8-.13s.48-.07.67-.12.35-.13.46-.23.17-.25.17-.44c0-.23-.04-.41-.13-.55-.09-.14-.19-.24-.33-.31-.13-.07-.28-.12-.45-.15-.16-.02-.33-.04-.49-.04-.44,0-.8.08-1.09.25s-.45.48-.47.94h-1.03c.02-.39.1-.71.24-.98.15-.27.34-.48.58-.65.24-.17.52-.28.83-.36.31-.07.64-.11,1-.11.28,0,.56.02.84.06s.53.12.76.25c.23.12.41.3.55.53s.2.52.2.88v3.21c0,.24,0,.42.04.53s.12.17.28.17c.09,0,.19-.02.32-.05v.8h.02Z"/>
      <path class="st0" d="M226.05,308.22c.1.16.22.28.38.38.16.09.33.16.53.2s.4.06.61.06c.16,0,.33-.01.51-.04.18-.02.34-.07.49-.13.15-.06.27-.16.37-.28s.14-.28.14-.48c0-.27-.1-.47-.3-.6-.2-.14-.45-.25-.76-.33-.3-.08-.63-.16-.99-.23-.35-.07-.68-.17-.99-.29-.3-.12-.56-.3-.76-.53s-.3-.54-.3-.94c0-.31.07-.58.21-.81s.32-.41.54-.55c.22-.14.47-.25.75-.31.28-.07.55-.1.83-.1.35,0,.68.03.98.09s.56.17.79.31c.23.15.41.35.55.6s.22.57.24.95h-1.03c-.02-.2-.07-.37-.16-.5s-.2-.24-.34-.32c-.14-.08-.29-.14-.45-.18-.17-.04-.33-.06-.5-.06-.15,0-.31.01-.47.04-.16.02-.3.07-.43.13-.13.06-.23.14-.31.24-.08.1-.12.23-.12.39,0,.18.06.32.19.44s.28.21.48.29c.19.08.41.14.65.19.24.05.49.11.73.16.26.06.51.12.76.21s.46.19.65.32c.19.13.34.3.46.5.12.2.18.45.18.75,0,.38-.08.69-.24.94s-.36.45-.62.61c-.25.15-.54.26-.86.32s-.63.09-.95.09c-.35,0-.68-.04-.99-.11-.31-.07-.59-.19-.83-.36s-.44-.38-.58-.65c-.15-.27-.23-.6-.24-.99h1.03c0,.23.06.42.16.57"/>
      <path class="st0" d="M234.61,304.45c-.26-.22-.61-.33-1.04-.33-.37,0-.68.07-.93.21s-.45.32-.6.55c-.15.23-.26.49-.32.78-.06.29-.1.6-.1.91,0,.29.03.57.1.85.07.27.17.52.32.73.15.21.34.38.57.51.23.13.51.19.84.19.51,0,.91-.13,1.19-.4.29-.27.46-.64.53-1.13h1.05c-.11.78-.4,1.37-.87,1.79-.46.42-1.1.63-1.89.63-.48,0-.9-.08-1.26-.23-.37-.15-.67-.37-.92-.65s-.43-.62-.56-1.01c-.12-.39-.19-.82-.19-1.29s.06-.91.18-1.31c.12-.41.3-.76.55-1.06s.56-.54.93-.71c.37-.17.8-.26,1.3-.26.35,0,.69.04,1,.13.31.08.59.22.82.39.24.18.43.4.59.67.15.27.25.59.29.96h-1.07c-.08-.4-.25-.7-.51-.92"/>
      <path class="st0" d="M237.84,307.5c.1.29.24.54.42.74.18.2.39.35.62.45.24.1.49.16.76.16s.52-.05.76-.16c.24-.1.45-.26.62-.45.18-.2.32-.44.42-.74.1-.29.15-.63.15-1.01s-.05-.72-.15-1.01c-.1-.29-.24-.54-.42-.74-.18-.2-.39-.35-.62-.46-.24-.1-.49-.16-.76-.16s-.52.05-.76.16c-.24.1-.45.26-.62.46-.18.2-.32.45-.42.74-.1.29-.15.63-.15,1.01s.05.72.15,1.01M236.79,305.2c.13-.4.32-.75.58-1.04s.58-.53.96-.7.82-.25,1.31-.25.94.08,1.31.25c.38.17.69.4.95.7.26.29.45.64.58,1.04s.19.83.19,1.29-.07.89-.19,1.28c-.13.4-.32.74-.58,1.03s-.57.52-.95.69-.81.25-1.31.25-.93-.08-1.31-.25-.7-.4-.96-.69c-.26-.29-.45-.64-.58-1.03-.13-.4-.19-.82-.19-1.28s.06-.89.19-1.29"/>
    </g>
    <g>
      <path class="st0" d="M109.49,213.24h37.95v7.97h-28.72v13.81h26.58v7.53h-26.58v15.43h29.24v7.97h-38.47v-52.72h0Z"/>
      <path class="st0" d="M155.79,213.24h9.23v20.97h24v-20.97h9.23v52.72h-9.23v-23.78h-24v23.78h-9.23v-52.72h0Z"/>
      <path class="st0" d="M208.73,213.24h9.23v30.72c0,1.77.09,3.57.26,5.39.17,1.82.66,3.46,1.48,4.91.81,1.45,2.04,2.65,3.69,3.58,1.65.94,3.97,1.4,6.98,1.4s5.33-.47,6.98-1.4,2.88-2.13,3.69-3.58,1.3-3.09,1.48-4.91c.17-1.82.26-3.62.26-5.39v-30.72h9.23v33.74c0,3.4-.52,6.35-1.55,8.86-1.03,2.51-2.5,4.62-4.39,6.31-1.9,1.7-4.17,2.97-6.83,3.8s-5.61,1.25-8.86,1.25-6.2-.42-8.86-1.25-4.94-2.1-6.83-3.8c-1.9-1.7-3.36-3.8-4.39-6.31s-1.55-5.46-1.55-8.86v-33.74h-.02Z"/>
    </g>
    <path class="st0" d="M144.56,161.62l.11,24.21c0,2.7.56,3,3.31,3.02,16.19.11,32.38-.28,48.56-1.35,2.07-.14,2.67-.91,2.8-3.16l1.83-33.44c.08-1.54.64-2.41,1.28-2.58,3.33-2.19,25.26-6.95,36.32-8.92,4.69-.91,6.11-3.38,8.29-11.14l1.48-5.24c.48-1.45,2.08-2.13,3.72-2.51l21-1.42c1.53-.04,2.14-1.2,2.1-3.17l-.47-53.36c0-1.02-.69-1.41-2.06-1.45-10.04-.28-19.34-2.77-25.6-7.52-1.72-1.3-5.25-2.08-8.87-2.47-1.91-.22-4.46.35-5.18.45-7-.28-12.67-.54-19.68-.82-1.46.17-1.93,1.02-2.03,2.37l-.02,14.01c.04,1.19,1.31,1.45,4.76,1.92,7-.21,11.27,1.08,16.21,2.4,1,.27,1.71.94,1.89,2.09.44,2.76,1.01,4.97,1.09,7.64.09,2.64-.33,5.33-.24,7.97.02.71-.54,1.07-1.28,1.1-3.5.17-6.84-.09-10.05-.74-1.32-.27-1.44-1.01-1.73-2.57-.39-2.18-.97-3.58-1.57-5.67-.11-.37-.3-.53-.61-.54l-10.34-.09c-1.47-.01-2.23,3.21-2.25,5.03-.59,4.35-.3,14.14-.07,22.33-.02,1.29-.14,1.5,1.35,1.62l8.98.7c1.77.15,2.32,1.26,2.37,2.25l.31,6.25c.12,1.35-.52,2.05-1.77,2.22-6.9.61-13.66,1.01-20.89.76-.88.02-1.37-.71-1.42-1.76l-.14-8.51c-.07-1.43-.06-2.09-1.34-2.36-5.83-1.24-11.58-2.78-17.48-3.35-1.2-.11-2.66-.43-3.87-.49-2.56-.12-4.87.54-7.54.71-1.2.15-1.62.45-1.76,1.24-.5,5.71-.16,13.22.43,15.21.33,1.21.52,1.35,1.7,1.44,2.71.2,5.77.9,8.48,1.01,1.04.04,1.27.89,1.24,2.08l-.49,20.71c-.03,1.26-1.17,1.84-2.36,1.87-2.12.04-4.16.56-6.28.63-1.35.04-2.06-.92-2.4-2.13-.76-2.65-1.57-4.88-2.09-7.58-.32-1.66-1.82-2.27-4.6-2.59l-16.55-1.91c-1.24-.37-1.88-.79-2.06-1.79l-.44-5.74c-.14-.84-.26-1.92.18-2.55.93-.93,5.68-2.54,8.51-3.65,1.19-.46,1.02-1.21.94-2.21-.05-4.55-1.48-9.98-2.71-14.83-.62-2.45-.42-2.49-2.88-2.57-1.05-.09-2.35-.12-3.4-.2-3.46-.28-5.85-.12-9.19-.88-.79-.09-2.21-1.62-1.93-2.52l5.32-15.9c.4-1.21.71-1.44,2.07-1.25l5.33.75c.82.11,1.44.96,1.6,1.94l.81,5.18c.16,1-.19,1.39,1.41,1.45l13.2.43c.98.03,1.31-.76,1.44-1.42.51-2.49,1.05-4.98,1.55-7.47.4-1.98.44-3,.47-5.02.03-2.79.07-5.54.11-8.32.02-1.47-.96-1.62-2.23-2.23-4.76-2.32-16.36-4.39-24.66-5.81-.98-.17-2.65-.04-3.63-.2-1.14-.19-1.54-1.85-1.77-2.38l-2.46-5.64c-.43-.99-.94-1.97-3.34-2.1-12.33-.63-24.58-1.09-36.44-.77-2.06.05-2.26.84-2.26,3.4l.03,71.82c0,1.63.54,3.89,2.51,3.92l24.49.39c.91,0,1.22.69,1.26,1.44.31,5.99,1.73,11.26,2.59,17.2.46,3.18,1.51,7.84,4.43,8.16l21.92,2.42c1.97.22,2.68.66,2.69,2.57"/>
  </g>
</svg>