<?xml version="1.0" encoding="UTF-8"?>
<svg xmlns="http://www.w3.org/2000/svg" xmlns:xlink="http://www.w3.org/1999/xlink" version="1.1" viewBox="0 0 360 360">
  <!-- Generator: Adobe Illustrator 29.6.1, SVG Export Plug-In . SVG Version: 2.1.1 Build 9)  -->
  <defs>
    <style>
      .st0 {
        fill: none;
      }

      .st1 {
        fill: #1f140f;
      }

      .st2 {
        clip-path: url(#clippath-11);
      }

      .st3 {
        clip-path: url(#clippath-10);
      }

      .st4 {
        clip-path: url(#clippath-1);
      }

      .st5 {
        clip-path: url(#clippath-3);
      }

      .st6 {
        clip-path: url(#clippath-4);
      }

      .st7 {
        clip-path: url(#clippath-2);
      }

      .st8 {
        clip-path: url(#clippath-7);
      }

      .st9 {
        clip-path: url(#clippath-6);
      }

      .st10 {
        clip-path: url(#clippath-9);
      }

      .st11 {
        clip-path: url(#clippath-8);
      }

      .st12 {
        clip-path: url(#clippath-5);
      }

      .st13 {
        fill: #fff;
      }

      .st14 {
        display: none;
      }

      .st15 {
        clip-path: url(#clippath);
      }
    </style>
    <clipPath id="clippath">
      <rect class="st0" x=".04" y=".04" width="359.92" height="359.92"/>
    </clipPath>
    <clipPath id="clippath-1">
      <rect class="st0" x=".04" y=".04" width="359.92" height="359.92"/>
    </clipPath>
    <clipPath id="clippath-2">
      <rect class="st0" x=".04" y=".04" width="359.92" height="359.92"/>
    </clipPath>
    <clipPath id="clippath-3">
      <rect class="st0" x=".04" y=".04" width="359.92" height="359.92"/>
    </clipPath>
    <clipPath id="clippath-4">
      <rect class="st0" x=".04" y=".04" width="359.92" height="359.92"/>
    </clipPath>
    <clipPath id="clippath-5">
      <rect class="st0" x=".04" y=".04" width="359.92" height="359.92"/>
    </clipPath>
    <clipPath id="clippath-6">
      <rect class="st0" x=".04" y=".04" width="359.92" height="359.92"/>
    </clipPath>
    <clipPath id="clippath-7">
      <rect class="st0" x=".04" y=".04" width="359.92" height="359.92"/>
    </clipPath>
    <clipPath id="clippath-8">
      <rect class="st0" x=".04" y=".04" width="359.92" height="359.92"/>
    </clipPath>
    <clipPath id="clippath-9">
      <rect class="st0" x=".04" y=".04" width="359.92" height="359.92"/>
    </clipPath>
    <clipPath id="clippath-10">
      <rect class="st0" x=".04" y=".04" width="359.92" height="359.92"/>
    </clipPath>
    <clipPath id="clippath-11">
      <rect class="st0" x=".04" y=".04" width="359.92" height="359.92"/>
    </clipPath>
  </defs>
  <g id="Capa_1" class="st14">
    <polygon class="st13" points=".04 .04 .04 359.81 359.96 359.96 359.96 .04 .04 .04"/>
    <polygon class="st1" points="114.33 288.33 114.33 289.3 109.52 289.3 109.52 292.05 114.01 292.05 114.01 293.02 109.52 293.02 109.52 296.01 114.37 296.01 114.37 296.97 108.37 296.97 108.37 288.33 114.33 288.33"/>
    <g class="st15">
      <g>
        <path class="st1" d="M119.37,296.97v-.99h-.02c-.22.39-.5.67-.83.85-.34.18-.74.27-1.2.27-.41,0-.75-.05-1.03-.16-.27-.11-.5-.26-.67-.47-.17-.2-.29-.44-.36-.72s-.1-.59-.1-.93v-4.12h1.03v4.24c0,.39.11.69.34.92.23.23.54.34.93.34.32,0,.59-.05.82-.15s.42-.23.57-.41.27-.39.34-.62c.08-.24.11-.5.11-.78v-3.53h1.03v6.26h-.97.01Z"/>
        <path class="st1" d="M122.24,295.58c.1.16.22.28.38.38.16.09.33.16.53.2s.4.06.61.06c.16,0,.33-.01.51-.04.18-.02.34-.07.49-.13s.27-.16.37-.28c.1-.13.14-.29.14-.48,0-.27-.1-.47-.3-.6-.2-.14-.45-.25-.76-.33-.3-.08-.63-.16-.99-.23s-.68-.17-.99-.29-.56-.3-.76-.53c-.2-.23-.3-.54-.3-.94,0-.31.07-.58.21-.81s.32-.41.54-.55c.22-.14.47-.25.75-.31.28-.07.56-.1.83-.1.35,0,.68.03.98.09s.56.17.79.31c.23.15.41.35.55.61.14.25.22.57.24.95h-1.03c-.02-.2-.07-.37-.16-.5-.09-.13-.2-.24-.34-.32-.14-.08-.29-.14-.45-.18-.17-.04-.33-.06-.5-.06-.15,0-.31.01-.47.04-.16.02-.3.07-.43.13s-.23.14-.31.24c-.08.1-.12.23-.12.39,0,.18.06.32.19.44.12.12.28.21.48.29.19.08.41.14.65.19s.48.11.73.16c.26.06.51.12.76.21s.46.19.65.32.34.3.46.5.18.45.18.75c0,.38-.08.69-.24.94-.16.25-.36.45-.62.6-.25.15-.54.26-.86.32s-.64.09-.95.09c-.35,0-.68-.04-.99-.11-.31-.07-.59-.19-.83-.36-.24-.17-.43-.38-.58-.65s-.23-.6-.24-.99h1.03c0,.23.06.42.16.57"/>
      </g>
    </g>
    <polygon class="st1" points="128.15 288.33 128.15 293.45 131.01 290.72 132.39 290.72 129.91 292.99 132.57 296.97 131.26 296.97 129.12 293.71 128.15 294.6 128.15 296.97 127.13 296.97 127.13 288.33 128.15 288.33"/>
    <g class="st4">
      <path class="st1" d="M136.78,293.74c-.13.1-.3.17-.51.21-.21.04-.43.08-.66.11-.23.03-.46.06-.7.1-.23.04-.44.09-.63.17-.19.08-.34.19-.45.34-.12.15-.18.35-.18.61,0,.17.03.31.1.43s.16.21.27.28.24.12.38.16c.15.03.3.05.46.05.34,0,.63-.05.87-.14.24-.09.44-.21.59-.35s.27-.29.34-.46c.07-.17.11-.32.11-.46v-1.05h0ZM138.45,296.95c-.18.11-.42.16-.74.16-.27,0-.48-.07-.63-.22-.16-.15-.24-.39-.24-.73-.28.34-.61.58-.99.73-.38.15-.78.22-1.22.22-.28,0-.55-.03-.8-.1-.25-.06-.47-.17-.66-.3-.19-.14-.33-.32-.44-.54s-.16-.49-.16-.8c0-.36.06-.65.18-.87s.28-.41.48-.55c.2-.14.42-.25.68-.32.25-.07.51-.13.78-.18.28-.06.55-.1.8-.13s.48-.07.67-.12.35-.13.46-.23.17-.25.17-.44c0-.23-.04-.41-.13-.54-.09-.14-.19-.24-.33-.31-.13-.07-.28-.12-.45-.15-.17-.02-.33-.04-.49-.04-.43,0-.8.08-1.09.25s-.45.48-.47.94h-1.03c.02-.39.1-.71.24-.98.14-.27.34-.48.58-.65.24-.17.52-.28.83-.36.31-.07.64-.11,1-.11.28,0,.56.02.84.06s.53.12.76.25c.23.12.41.3.54.53.14.22.21.52.21.88v3.21c0,.24,0,.42.04.53s.12.17.28.17c.09,0,.19-.02.32-.05v.8h.01Z"/>
    </g>
    <rect class="st1" x="139.03" y="288.33" width="1.03" height="8.64"/>
    <polygon class="st1" points="145.47 288.33 145.47 292.05 150.02 292.05 150.02 288.33 151.17 288.33 151.17 296.97 150.02 296.97 150.02 293.02 145.47 293.02 145.47 296.97 144.32 296.97 144.32 288.33 145.47 288.33"/>
    <g class="st7">
      <g>
        <path class="st1" d="M156.64,292.56c-.09-.22-.22-.4-.38-.56s-.34-.28-.56-.38c-.21-.09-.45-.14-.71-.14s-.51.05-.72.14c-.21.09-.4.22-.55.38-.15.16-.27.35-.36.56s-.14.44-.16.68h3.59c-.02-.24-.07-.47-.16-.69M156.88,296.57c-.47.36-1.06.53-1.77.53-.5,0-.93-.08-1.3-.24-.37-.16-.68-.39-.93-.68-.25-.29-.44-.64-.56-1.04-.13-.4-.2-.84-.21-1.32,0-.48.07-.91.22-1.31.14-.4.35-.74.61-1.03s.57-.52.93-.68c.36-.16.75-.24,1.18-.24.56,0,1.02.12,1.39.35s.66.52.88.88c.22.36.38.74.46,1.16.09.42.12.82.1,1.2h-4.68c0,.27.02.53.1.78.07.25.19.46.35.65s.37.34.62.45.54.17.88.17c.44,0,.79-.1,1.07-.3.28-.2.46-.51.55-.92h1.02c-.14.7-.44,1.23-.91,1.58"/>
        <path class="st1" d="M159.45,290.72v1.32h.02c.25-.51.56-.88.92-1.12s.82-.35,1.38-.34v1.09c-.41,0-.76.06-1.05.17-.29.11-.53.28-.7.5-.18.22-.31.48-.39.79s-.12.67-.12,1.07v2.78h-1.03v-6.26h.97,0Z"/>
        <path class="st1" d="M163.04,290.72v1.32h.02c.25-.51.56-.88.92-1.12s.82-.35,1.38-.34v1.09c-.41,0-.76.06-1.05.17-.29.11-.53.28-.7.5-.18.22-.31.48-.39.79s-.12.67-.12,1.07v2.78h-1.03v-6.26h.97,0Z"/>
      </g>
    </g>
    <path class="st1" d="M166.79,296.97h-1.03v-6.26h1.03v6.26ZM165.77,288.33h1.03v1.26h-1.03v-1.26Z"/>
    <polygon class="st1" points="169.05 288.33 169.05 293.45 171.9 290.72 173.28 290.72 170.8 292.99 173.46 296.97 172.16 296.97 170.01 293.71 169.05 294.6 169.05 296.97 168.02 296.97 168.02 288.33 169.05 288.33"/>
    <g class="st5">
      <g>
        <path class="st1" d="M174.7,294.86c.1.29.24.54.42.74.18.2.39.35.62.45.24.1.49.16.76.16s.52-.05.76-.16c.24-.1.45-.26.62-.45.18-.2.32-.44.42-.74.1-.29.15-.63.15-1.01s-.05-.72-.15-1.01c-.1-.29-.24-.54-.42-.74-.18-.2-.39-.36-.62-.46-.24-.11-.49-.16-.76-.16s-.52.05-.76.16c-.24.1-.44.26-.62.46-.18.2-.32.45-.42.74-.1.29-.15.63-.15,1.01s.05.72.15,1.01M173.66,292.56c.13-.4.32-.75.58-1.04s.58-.53.96-.7.82-.25,1.31-.25.94.08,1.31.25c.38.17.69.4.95.7.26.29.45.64.58,1.04s.19.83.19,1.29-.06.89-.19,1.28c-.13.39-.32.74-.58,1.03s-.57.52-.95.69-.81.25-1.31.25-.93-.08-1.31-.25-.7-.4-.96-.69c-.26-.29-.45-.64-.58-1.03-.13-.4-.19-.82-.19-1.28s.06-.89.19-1.29"/>
        <path class="st1" d="M189.43,296.34c-.59.55-1.43.83-2.52.83s-1.98-.26-2.61-.79c-.62-.53-.94-1.37-.94-2.52v-5.52h1.15v5.52c0,.77.21,1.36.62,1.76.41.4,1,.6,1.78.6.73,0,1.29-.2,1.68-.6.38-.4.57-.99.57-1.76v-5.52h1.15v5.52c0,1.1-.29,1.93-.88,2.49"/>
        <path class="st1" d="M192.51,290.72v.99h.02c.43-.76,1.11-1.14,2.03-1.14.41,0,.76.06,1.03.17.27.11.5.27.67.47s.29.44.36.72.1.59.1.93v4.11h-1.03v-4.24c0-.39-.11-.69-.34-.92-.23-.22-.54-.34-.93-.34-.32,0-.59.05-.82.15-.23.1-.42.23-.57.41-.15.18-.27.39-.34.62-.08.24-.12.5-.12.78v3.53h-1.03v-6.26h.97v.02Z"/>
      </g>
    </g>
    <path class="st1" d="M198.93,296.97h-1.03v-6.26h1.03v6.26ZM197.9,288.33h1.03v1.26h-1.03v-1.26Z"/>
    <g class="st6">
      <g>
        <path class="st1" d="M204.85,292.94c-.08-.28-.19-.53-.35-.75s-.36-.39-.6-.52-.53-.19-.87-.19-.64.07-.88.21c-.24.14-.44.32-.59.54s-.26.47-.33.76c-.07.28-.1.57-.1.86,0,.31.04.6.11.89s.19.54.34.76c.16.22.36.39.61.53.25.13.55.2.91.2s.65-.07.89-.21c.24-.14.43-.32.57-.54.15-.23.25-.48.31-.78.07-.29.1-.59.1-.9,0-.29-.04-.57-.12-.85M201.15,288.33v3.23h.02c.17-.35.44-.6.8-.76s.76-.24,1.2-.24c.48,0,.91.09,1.26.27.36.18.66.42.9.72.24.3.42.65.54,1.05.12.39.18.82.18,1.26s-.06.86-.17,1.26c-.12.4-.29.74-.53,1.03-.24.3-.54.53-.9.7s-.78.25-1.25.25c-.15,0-.33-.02-.51-.05-.19-.03-.38-.08-.56-.16-.19-.07-.36-.17-.53-.3-.17-.12-.3-.28-.42-.47h-.02v.83h-1.03v-8.64h1.03v.02Z"/>
        <path class="st1" d="M211.01,292.56c-.09-.22-.22-.4-.38-.56s-.34-.28-.56-.38c-.21-.09-.45-.14-.71-.14s-.51.05-.72.14c-.21.09-.4.22-.55.38-.15.16-.27.35-.36.56s-.14.44-.16.68h3.59c-.02-.24-.07-.47-.16-.69M211.26,296.57c-.47.36-1.06.53-1.77.53-.5,0-.93-.08-1.3-.24-.37-.16-.68-.39-.93-.68-.25-.29-.44-.64-.56-1.04-.13-.4-.2-.84-.21-1.32,0-.48.07-.91.22-1.31.14-.4.35-.74.61-1.03s.57-.52.93-.68c.36-.16.75-.24,1.18-.24.56,0,1.02.12,1.39.35s.66.52.88.88c.22.36.38.74.46,1.16s.12.82.1,1.2h-4.68c0,.27.02.53.1.78.07.25.19.46.35.65s.37.34.62.45.55.17.88.17c.43,0,.79-.1,1.07-.3.28-.2.46-.51.55-.92h1.02c-.14.7-.44,1.23-.91,1.58"/>
        <path class="st1" d="M213.82,290.72v1.32h.02c.25-.51.56-.88.92-1.12s.82-.35,1.38-.34v1.09c-.41,0-.76.06-1.05.17-.29.11-.53.28-.7.5-.18.22-.31.48-.39.79s-.12.67-.12,1.07v2.78h-1.03v-6.26h.97,0Z"/>
        <path class="st1" d="M219.16,290.72v.91h-1.25v3.88c0,.12,0,.22.03.29.02.07.06.13.11.17.06.04.14.07.24.08.1.01.23.02.39.02h.47v.91h-.79c-.27,0-.49-.02-.68-.05-.19-.04-.34-.1-.46-.2-.12-.1-.2-.23-.26-.41s-.09-.41-.09-.7v-3.98h-1.07v-.91h1.07v-1.88h1.03v1.88h1.26Z"/>
        <path class="st1" d="M220.65,295.58c.1.16.22.28.38.38.16.09.33.16.53.2s.4.06.61.06c.16,0,.33-.01.51-.04.18-.02.34-.07.49-.13.15-.06.27-.16.37-.28.1-.13.14-.29.14-.48,0-.27-.1-.47-.3-.6-.2-.14-.45-.25-.76-.33-.3-.08-.63-.16-.99-.23-.35-.07-.68-.17-.99-.29-.3-.12-.56-.3-.76-.53s-.3-.54-.3-.94c0-.31.07-.58.21-.81s.32-.41.54-.55c.22-.14.47-.25.75-.31.28-.07.55-.1.83-.1.35,0,.68.03.98.09s.56.17.79.31c.23.15.41.35.55.61.14.25.22.57.24.95h-1.03c-.02-.2-.07-.37-.16-.5s-.2-.24-.34-.32c-.14-.08-.29-.14-.45-.18-.17-.04-.33-.06-.5-.06-.15,0-.31.01-.47.04-.16.02-.3.07-.43.13-.13.06-.23.14-.31.24-.08.1-.12.23-.12.39,0,.18.06.32.19.44.12.12.28.21.48.29.19.08.41.14.65.19.24.05.48.11.73.16.26.06.51.12.76.21s.46.19.65.32c.19.13.34.3.46.5.12.2.18.45.18.75,0,.38-.08.69-.24.94s-.36.45-.62.6c-.25.15-.54.26-.86.32s-.63.09-.95.09c-.35,0-.68-.04-.99-.11-.31-.07-.59-.19-.83-.36s-.44-.38-.58-.65c-.15-.27-.23-.6-.24-.99h1.03c0,.23.06.42.16.57"/>
      </g>
    </g>
    <path class="st1" d="M226.57,296.97h-1.03v-6.26h1.03v6.26ZM225.54,288.33h1.03v1.26h-1.03v-1.26Z"/>
    <g class="st12">
      <g>
        <path class="st1" d="M230.4,290.72v.91h-1.25v3.88c0,.12,0,.22.03.29s.06.13.11.17c.06.04.14.07.24.08.1.01.23.02.39.02h.47v.91h-.79c-.27,0-.49-.02-.68-.05-.19-.04-.34-.1-.46-.2-.12-.1-.2-.23-.26-.41s-.09-.41-.09-.7v-3.98h-1.07v-.91h1.07v-1.88h1.03v1.88h1.26Z"/>
        <path class="st1" d="M234.98,293.74c-.13.1-.3.17-.51.21-.21.04-.43.08-.66.11-.23.03-.46.06-.7.1-.23.04-.44.09-.63.17-.19.08-.34.19-.45.34-.12.15-.18.35-.18.61,0,.17.03.31.1.43s.16.21.27.28.24.12.38.16c.15.03.3.05.46.05.34,0,.63-.05.87-.14.24-.09.44-.21.59-.35s.27-.29.34-.46c.07-.17.11-.32.11-.46v-1.05h0ZM236.65,296.95c-.18.11-.42.16-.74.16-.27,0-.48-.07-.64-.22s-.24-.39-.24-.73c-.28.34-.61.58-.99.73-.38.15-.78.22-1.22.22-.28,0-.55-.03-.8-.1-.25-.06-.47-.17-.66-.3-.19-.14-.33-.32-.44-.54s-.16-.49-.16-.8c0-.36.06-.65.18-.87s.28-.41.48-.55c.2-.14.42-.25.68-.32.25-.07.51-.13.78-.18.28-.06.55-.1.8-.13s.48-.07.67-.12.35-.13.46-.23.17-.25.17-.44c0-.23-.04-.41-.13-.54-.09-.14-.19-.24-.33-.31-.13-.07-.28-.12-.45-.15-.16-.02-.33-.04-.49-.04-.43,0-.8.08-1.09.25s-.45.48-.47.94h-1.03c.02-.39.1-.71.24-.98.15-.27.34-.48.58-.65.24-.17.52-.28.83-.36.31-.07.64-.11,1-.11.28,0,.56.02.84.06s.53.12.76.25c.23.12.41.3.55.53.14.22.2.52.2.88v3.21c0,.24,0,.42.04.53s.12.17.28.17c.09,0,.19-.02.32-.05v.8h.02Z"/>
        <path class="st1" d="M239.84,290.72v.91h-1.25v3.88c0,.12,0,.22.03.29.02.07.06.13.11.17.06.04.14.07.24.08.1.01.23.02.39.02h.47v.91h-.79c-.27,0-.49-.02-.68-.05-.19-.04-.34-.1-.46-.2-.12-.1-.2-.23-.26-.41s-.09-.41-.09-.7v-3.98h-1.07v-.91h1.07v-1.88h1.03v1.88h1.26Z"/>
        <path class="st1" d="M244.72,292.56c-.09-.22-.22-.4-.38-.56s-.34-.28-.56-.38c-.21-.09-.45-.14-.71-.14s-.51.05-.72.14c-.21.09-.4.22-.55.38-.15.16-.27.35-.36.56s-.14.44-.16.68h3.59c-.02-.24-.07-.47-.16-.69M244.97,296.57c-.47.36-1.06.53-1.77.53-.5,0-.93-.08-1.3-.24-.37-.16-.68-.39-.93-.68-.25-.29-.44-.64-.56-1.04s-.2-.84-.21-1.32c0-.48.07-.91.22-1.31.14-.4.35-.74.61-1.03s.57-.52.93-.68c.36-.16.75-.24,1.18-.24.56,0,1.02.12,1.39.35s.66.52.88.88c.22.36.38.74.46,1.16s.12.82.1,1.2h-4.68c0,.27.02.53.1.78.07.25.19.46.35.65s.37.34.62.45.54.17.88.17c.43,0,.79-.1,1.07-.3.28-.2.46-.51.55-.92h1.02c-.14.7-.44,1.23-.91,1.58"/>
        <path class="st1" d="M250.48,293.74c-.13.1-.3.17-.51.21-.21.04-.43.08-.66.11-.23.03-.46.06-.7.1-.23.04-.44.09-.63.17-.19.08-.34.19-.45.34-.12.15-.18.35-.18.61,0,.17.04.31.1.43.07.12.16.21.27.28s.24.12.38.16c.15.03.3.05.46.05.34,0,.63-.05.87-.14.24-.09.44-.21.59-.35s.27-.29.34-.46c.07-.17.11-.32.11-.46v-1.05h0ZM252.15,296.95c-.18.11-.42.16-.74.16-.27,0-.48-.07-.64-.22s-.24-.39-.24-.73c-.28.34-.61.58-.99.73-.38.15-.78.22-1.22.22-.28,0-.55-.03-.8-.1-.25-.06-.47-.17-.66-.3-.19-.14-.33-.32-.44-.54s-.16-.49-.16-.8c0-.36.06-.65.18-.87s.28-.41.48-.55c.2-.14.42-.25.68-.32.25-.07.51-.13.78-.18.28-.06.55-.1.8-.13s.48-.07.67-.12.35-.13.46-.23.17-.25.17-.44c0-.23-.04-.41-.13-.54-.09-.14-.19-.24-.33-.31-.13-.07-.28-.12-.45-.15-.16-.02-.33-.04-.49-.04-.44,0-.8.08-1.09.25s-.45.48-.47.94h-1.03c.02-.39.1-.71.24-.98.15-.27.34-.48.58-.65.24-.17.52-.28.83-.36.31-.07.64-.11,1-.11.28,0,.56.02.84.06s.53.12.76.25c.23.12.41.3.55.53.14.22.2.52.2.88v3.21c0,.24,0,.42.04.53s.12.17.28.17c.09,0,.19-.02.32-.05v.8h.02Z"/>
        <path class="st1" d="M114.38,308.98c-.59.55-1.43.83-2.52.83s-1.98-.26-2.61-.79c-.62-.53-.94-1.37-.94-2.52v-5.52h1.15v5.52c0,.77.21,1.36.62,1.76.41.4,1,.6,1.78.6.73,0,1.29-.2,1.68-.6.38-.4.57-.99.57-1.76v-5.52h1.15v5.52c0,1.1-.29,1.93-.88,2.49"/>
        <path class="st1" d="M117.47,303.36v.99h.02c.43-.76,1.11-1.14,2.03-1.14.41,0,.75.06,1.03.17.27.11.5.27.67.47s.29.44.36.72.1.59.1.93v4.11h-1.03v-4.24c0-.39-.11-.69-.34-.92-.23-.22-.54-.34-.93-.34-.32,0-.59.05-.82.15s-.42.23-.57.41-.27.39-.34.62c-.08.24-.12.5-.12.78v3.53h-1.03v-6.26h.97v.02Z"/>
      </g>
    </g>
    <path class="st1" d="M123.88,309.61h-1.03v-6.26h1.03v6.26ZM122.85,300.97h1.03v1.26h-1.03v-1.26Z"/>
    <polygon class="st1" points="126.76 309.61 124.44 303.36 125.59 303.36 127.34 308.57 127.37 308.57 129.07 303.36 130.15 303.36 127.86 309.61 126.76 309.61"/>
    <g class="st9">
      <g>
        <path class="st1" d="M134.84,305.2c-.09-.22-.22-.4-.38-.56s-.34-.28-.56-.38c-.21-.09-.45-.14-.71-.14s-.51.05-.72.14c-.21.09-.4.22-.55.38-.15.16-.27.35-.36.56s-.14.44-.16.68h3.59c-.02-.24-.07-.47-.16-.69M135.09,309.21c-.47.36-1.06.53-1.77.53-.5,0-.93-.08-1.3-.24-.37-.16-.68-.39-.93-.68-.25-.29-.44-.64-.56-1.04-.13-.4-.2-.84-.21-1.32,0-.48.07-.91.22-1.31.14-.4.35-.74.61-1.03s.57-.52.93-.68c.36-.16.75-.24,1.18-.24.56,0,1.02.12,1.39.35s.66.52.88.88.38.74.46,1.16.12.82.1,1.2h-4.68c0,.27.02.53.1.78.07.25.19.46.35.65s.37.34.62.45.55.17.88.17c.43,0,.79-.1,1.07-.3.28-.2.46-.51.55-.92h1.02c-.14.7-.44,1.23-.91,1.58"/>
        <path class="st1" d="M137.65,303.36v1.32h.02c.25-.51.56-.88.92-1.12s.82-.35,1.38-.34v1.09c-.41,0-.76.06-1.05.17-.29.11-.53.28-.7.5-.18.22-.31.48-.39.79s-.12.67-.12,1.07v2.78h-1.03v-6.26h.97,0Z"/>
        <path class="st1" d="M141.1,308.22c.1.16.22.28.38.38.16.09.33.16.53.2s.4.06.61.06c.16,0,.33-.01.51-.04.18-.02.34-.07.49-.13.15-.06.27-.16.37-.28.1-.12.15-.28.15-.48,0-.27-.1-.47-.3-.6-.2-.14-.45-.25-.76-.33-.3-.08-.63-.16-.99-.23-.35-.07-.68-.17-.99-.29-.3-.12-.56-.3-.76-.53s-.3-.54-.3-.94c0-.31.07-.58.21-.81s.32-.41.54-.55c.22-.14.47-.25.75-.31.28-.07.55-.1.83-.1.35,0,.68.03.98.09s.56.17.79.31c.23.15.41.35.55.6s.22.57.24.95h-1.03c-.02-.2-.07-.37-.16-.5s-.2-.24-.34-.32c-.14-.08-.29-.14-.45-.18-.17-.04-.33-.06-.5-.06-.15,0-.31.01-.47.04-.16.02-.3.07-.43.13-.13.06-.23.14-.31.24-.08.1-.12.23-.12.39,0,.18.06.32.19.44s.28.21.48.29c.19.08.41.14.65.19.24.05.48.11.73.16.26.06.51.12.76.21s.46.19.65.32c.19.13.34.3.46.5.12.2.18.45.18.75,0,.38-.08.69-.24.94s-.36.45-.62.61c-.25.15-.54.26-.86.32s-.64.09-.95.09c-.35,0-.68-.04-.99-.11-.31-.07-.59-.19-.83-.36s-.43-.38-.58-.65c-.15-.27-.23-.6-.24-.99h1.03c0,.23.06.42.16.57"/>
      </g>
    </g>
    <path class="st1" d="M147.02,309.61h-1.03v-6.26h1.03v6.26ZM145.99,300.97h1.03v1.26h-1.03v-1.26Z"/>
    <g class="st8">
      <g>
        <path class="st1" d="M149.05,307.39c.08.28.19.53.35.74.16.22.36.39.6.52.25.13.53.19.87.19s.64-.07.88-.21.44-.32.59-.54.26-.47.33-.76c.07-.28.1-.57.1-.86,0-.31-.04-.6-.11-.89s-.19-.54-.35-.76-.36-.39-.61-.53c-.25-.13-.55-.2-.91-.2s-.64.07-.88.21c-.24.14-.43.32-.58.54-.15.23-.25.48-.31.78-.07.29-.1.59-.1.9s.04.58.12.85M152.74,309.61v-.85h-.02c-.17.35-.44.6-.8.75s-.76.23-1.2.23c-.48,0-.91-.09-1.26-.27-.36-.18-.66-.42-.9-.71-.24-.3-.42-.65-.54-1.04-.12-.4-.18-.82-.18-1.26s.06-.86.17-1.26c.12-.4.29-.74.53-1.03s.54-.53.9-.7.78-.26,1.25-.26c.16,0,.34.02.52.05.19.03.37.09.56.16.18.08.36.18.53.3.17.13.3.28.42.47h.02v-3.22h1.03v8.64h-1.03Z"/>
        <path class="st1" d="M158.8,306.38c-.13.1-.3.17-.51.21-.21.04-.43.08-.66.11-.23.03-.46.06-.7.1-.23.04-.44.09-.63.17-.19.08-.34.19-.45.34-.12.15-.18.35-.18.61,0,.17.03.31.1.43s.16.21.27.28.24.12.38.16c.15.03.3.05.46.05.34,0,.63-.05.87-.14.24-.09.44-.21.59-.35s.27-.29.34-.46c.07-.16.11-.32.11-.46v-1.05h0ZM160.47,309.59c-.18.11-.42.16-.74.16-.27,0-.48-.07-.63-.22-.16-.15-.24-.39-.24-.73-.28.34-.61.58-.99.73-.38.15-.78.22-1.22.22-.28,0-.55-.03-.8-.1-.25-.06-.47-.17-.66-.3-.19-.14-.33-.32-.44-.54s-.16-.49-.16-.8c0-.35.06-.65.18-.87.12-.23.28-.41.48-.55.2-.14.42-.25.68-.32.25-.07.51-.13.78-.18.28-.06.55-.1.8-.13s.48-.07.67-.12.35-.13.46-.23.17-.25.17-.44c0-.23-.04-.41-.13-.55-.09-.14-.19-.24-.33-.31-.13-.07-.28-.12-.45-.15-.17-.02-.33-.04-.49-.04-.43,0-.8.08-1.09.25s-.45.48-.47.94h-1.03c.02-.39.1-.71.24-.98.14-.27.34-.48.58-.65.24-.17.52-.28.83-.36.31-.07.64-.11,1-.11.28,0,.56.02.84.06s.53.12.76.25c.23.12.41.3.54.53.14.23.21.52.21.88v3.21c0,.24,0,.42.04.53s.12.17.29.17c.09,0,.19-.02.31-.05v.8h.01Z"/>
        <path class="st1" d="M161.85,307.39c.08.28.19.53.35.74.16.22.36.39.6.52.25.13.53.19.87.19s.64-.07.88-.21.44-.32.59-.54.26-.47.33-.76c.07-.28.1-.57.1-.86,0-.31-.04-.6-.11-.89s-.19-.54-.35-.76-.36-.39-.61-.53c-.25-.13-.55-.2-.91-.2s-.64.07-.88.21c-.24.14-.43.32-.58.54-.15.23-.25.48-.31.78-.07.29-.1.59-.1.9s.04.58.12.85M165.55,309.61v-.85h-.02c-.17.35-.44.6-.8.75s-.76.23-1.2.23c-.48,0-.91-.09-1.26-.27-.36-.18-.66-.42-.9-.71-.24-.3-.42-.65-.54-1.04-.12-.4-.18-.82-.18-1.26s.06-.86.17-1.26c.12-.4.29-.74.53-1.03s.54-.53.9-.7.78-.26,1.25-.26c.16,0,.34.02.52.05.19.03.37.09.56.16.18.08.36.18.53.3.17.13.3.28.42.47h.02v-3.22h1.03v8.64h-1.03Z"/>
        <path class="st1" d="M171.52,307.39c.08.28.19.53.35.74.16.22.36.39.6.52.25.13.53.19.87.19s.64-.07.88-.21c.24-.14.44-.32.59-.54s.26-.47.33-.76c.07-.28.1-.57.1-.86,0-.31-.04-.6-.11-.89s-.19-.54-.34-.76c-.16-.22-.36-.39-.61-.53-.25-.13-.55-.2-.91-.2s-.64.07-.88.21c-.24.14-.44.32-.58.54-.15.23-.25.48-.31.78-.07.29-.1.59-.1.9s.04.58.12.85M175.22,309.61v-.85h-.02c-.17.35-.44.6-.8.75s-.76.23-1.2.23c-.48,0-.91-.09-1.26-.27-.36-.18-.66-.42-.9-.71-.24-.3-.42-.65-.54-1.04-.12-.4-.18-.82-.18-1.26s.06-.86.17-1.26c.12-.4.29-.74.53-1.03s.54-.53.9-.7.78-.26,1.25-.26c.16,0,.33.02.52.05s.37.09.56.16c.18.08.36.18.53.3.17.13.3.28.42.47h.02v-3.22h1.03v8.64h-1.03Z"/>
        <path class="st1" d="M181.58,305.2c-.09-.22-.22-.4-.38-.56s-.34-.28-.56-.38c-.21-.09-.45-.14-.71-.14s-.51.05-.72.14c-.21.09-.4.22-.55.38-.15.16-.28.35-.36.56-.09.21-.14.44-.16.68h3.59c-.02-.24-.07-.47-.16-.69M181.83,309.21c-.47.36-1.06.53-1.77.53-.5,0-.93-.08-1.3-.24-.37-.16-.68-.39-.93-.68-.25-.29-.44-.64-.56-1.04-.13-.4-.2-.84-.21-1.32,0-.48.07-.91.22-1.31.14-.4.35-.74.61-1.03s.57-.52.93-.68c.36-.16.75-.24,1.18-.24.56,0,1.02.12,1.39.35s.66.52.88.88.38.74.46,1.16.12.82.1,1.2h-4.68c0,.27.02.53.1.78.07.25.19.46.35.65s.37.34.62.45.54.17.88.17c.44,0,.79-.1,1.07-.3.28-.2.46-.51.55-.92h1.02c-.14.7-.44,1.23-.91,1.58"/>
      </g>
    </g>
    <rect class="st1" x="183.52" y="300.97" width="1.03" height="8.64"/>
    <g class="st11">
      <g>
        <path class="st1" d="M192.21,305.11c.65,0,1.13-.12,1.43-.4.3-.28.45-.67.45-1.19s-.15-.91-.45-1.18-.78-.41-1.43-.41h-2.25v3.17h2.25ZM192.6,300.97c.87,0,1.53.22,1.98.67s.67,1.08.67,1.88-.22,1.44-.67,1.89-1.11.67-1.98.67h-2.64v3.53h-1.15v-8.64h3.79Z"/>
        <path class="st1" d="M199.92,306.38c-.13.1-.3.17-.51.21-.21.04-.43.08-.66.11-.23.03-.46.06-.7.1-.23.04-.44.09-.63.17-.19.08-.34.19-.45.34-.12.15-.18.35-.18.61,0,.17.03.31.1.43s.16.21.27.28.24.12.38.16c.15.03.3.05.46.05.34,0,.63-.05.87-.14.24-.09.44-.21.59-.35s.27-.29.34-.46c.07-.16.11-.32.11-.46v-1.05h0ZM201.59,309.59c-.18.11-.42.16-.74.16-.27,0-.48-.07-.64-.22s-.24-.39-.24-.73c-.28.34-.61.58-.99.73-.38.15-.78.22-1.22.22-.28,0-.55-.03-.8-.1-.25-.06-.47-.17-.66-.3-.19-.14-.33-.32-.44-.54s-.16-.49-.16-.8c0-.35.06-.65.18-.87.12-.23.28-.41.48-.55.2-.14.42-.25.68-.32.25-.07.51-.13.78-.18.28-.06.55-.1.8-.13s.48-.07.67-.12.35-.13.46-.23.17-.25.17-.44c0-.23-.04-.41-.13-.55-.09-.14-.19-.24-.33-.31-.13-.07-.28-.12-.45-.15-.17-.02-.33-.04-.49-.04-.43,0-.8.08-1.09.25s-.45.48-.47.94h-1.03c.02-.39.1-.71.24-.98.15-.27.34-.48.58-.65.24-.17.52-.28.83-.36.31-.07.64-.11,1-.11.28,0,.56.02.84.06s.53.12.76.25c.23.12.41.3.55.53s.21.52.21.88v3.21c0,.24,0,.42.04.53s.12.17.28.17c.09,0,.19-.02.32-.05v.8h.01Z"/>
      </g>
    </g>
    <path class="st1" d="M202.17,309.61h1.03v-6.26h-1.03v6.26ZM204.42,300.3l-1.71,1.96h-.77l1.16-1.96h1.32Z"/>
    <g class="st10">
      <path class="st1" d="M205.15,308.22c.1.16.22.28.38.38.16.09.33.16.53.2s.4.06.61.06c.16,0,.33-.01.51-.04.18-.02.34-.07.49-.13.15-.06.27-.16.37-.28s.14-.28.14-.48c0-.27-.1-.47-.3-.6-.2-.14-.45-.25-.76-.33-.3-.08-.63-.16-.99-.23-.35-.07-.68-.17-.99-.29-.3-.12-.56-.3-.76-.53s-.3-.54-.3-.94c0-.31.07-.58.21-.81s.32-.41.54-.55c.22-.14.47-.25.75-.31.28-.07.55-.1.83-.1.35,0,.68.03.98.09s.56.17.79.31c.23.15.41.35.55.6s.22.57.24.95h-1.03c-.02-.2-.07-.37-.16-.5s-.2-.24-.34-.32c-.14-.08-.29-.14-.45-.18-.17-.04-.33-.06-.5-.06-.15,0-.31.01-.47.04-.16.02-.3.07-.43.13-.13.06-.23.14-.31.24-.08.1-.12.23-.12.39,0,.18.06.32.19.44s.28.21.48.29c.19.08.41.14.65.19.24.05.48.11.73.16.26.06.51.12.76.21s.46.19.65.32c.19.13.34.3.46.5.12.2.18.45.18.75,0,.38-.08.69-.24.94s-.36.45-.62.61c-.25.15-.54.26-.86.32s-.63.09-.95.09c-.35,0-.68-.04-.99-.11-.31-.07-.59-.19-.83-.36s-.44-.38-.58-.65c-.15-.27-.23-.6-.24-.99h1.03c0,.23.06.42.16.57"/>
    </g>
    <polygon class="st1" points="215.17 309.61 212.13 300.97 213.36 300.97 215.83 308.46 215.86 308.46 218.35 300.97 219.55 300.97 216.47 309.61 215.17 309.61"/>
    <g class="st3">
      <g>
        <path class="st1" d="M223.07,306.38c-.13.1-.3.17-.51.21-.21.04-.43.08-.66.11-.23.03-.46.06-.7.1-.23.04-.44.09-.63.17-.19.08-.34.19-.45.34-.12.15-.18.35-.18.61,0,.17.03.31.1.43s.16.21.27.28.24.12.38.16c.15.03.3.05.46.05.34,0,.63-.05.87-.14.24-.09.44-.21.59-.35s.27-.29.34-.46c.07-.16.11-.32.11-.46v-1.05h0ZM224.74,309.59c-.18.11-.42.16-.74.16-.27,0-.48-.07-.64-.22s-.24-.39-.24-.73c-.28.34-.61.58-.99.73-.38.15-.78.22-1.22.22-.28,0-.55-.03-.8-.1-.25-.06-.47-.17-.66-.3-.19-.14-.33-.32-.44-.54s-.16-.49-.16-.8c0-.35.06-.65.18-.87.12-.23.28-.41.48-.55.2-.14.42-.25.68-.32.25-.07.51-.13.78-.18.28-.06.55-.1.8-.13s.48-.07.67-.12.35-.13.46-.23.17-.25.17-.44c0-.23-.04-.41-.13-.55-.09-.14-.19-.24-.33-.31-.13-.07-.28-.12-.45-.15-.16-.02-.33-.04-.49-.04-.44,0-.8.08-1.09.25s-.45.48-.47.94h-1.03c.02-.39.1-.71.24-.98.15-.27.34-.48.58-.65.24-.17.52-.28.83-.36.31-.07.64-.11,1-.11.28,0,.56.02.84.06s.53.12.76.25c.23.12.41.3.55.53s.2.52.2.88v3.21c0,.24,0,.42.04.53s.12.17.28.17c.09,0,.19-.02.32-.05v.8h.02Z"/>
        <path class="st1" d="M226.05,308.22c.1.16.22.28.38.38.16.09.33.16.53.2s.4.06.61.06c.16,0,.33-.01.51-.04.18-.02.34-.07.49-.13.15-.06.27-.16.37-.28s.14-.28.14-.48c0-.27-.1-.47-.3-.6-.2-.14-.45-.25-.76-.33-.3-.08-.63-.16-.99-.23-.35-.07-.68-.17-.99-.29-.3-.12-.56-.3-.76-.53s-.3-.54-.3-.94c0-.31.07-.58.21-.81s.32-.41.54-.55c.22-.14.47-.25.75-.31.28-.07.55-.1.83-.1.35,0,.68.03.98.09s.56.17.79.31c.23.15.41.35.55.6s.22.57.24.95h-1.03c-.02-.2-.07-.37-.16-.5s-.2-.24-.34-.32c-.14-.08-.29-.14-.45-.18-.17-.04-.33-.06-.5-.06-.15,0-.31.01-.47.04-.16.02-.3.07-.43.13-.13.06-.23.14-.31.24-.08.1-.12.23-.12.39,0,.18.06.32.19.44s.28.21.48.29c.19.08.41.14.65.19.24.05.49.11.73.16.26.06.51.12.76.21s.46.19.65.32c.19.13.34.3.46.5.12.2.18.45.18.75,0,.38-.08.69-.24.94s-.36.45-.62.61c-.25.15-.54.26-.86.32s-.63.09-.95.09c-.35,0-.68-.04-.99-.11-.31-.07-.59-.19-.83-.36s-.44-.38-.58-.65c-.15-.27-.23-.6-.24-.99h1.03c0,.23.06.42.16.57"/>
        <path class="st1" d="M234.61,304.45c-.26-.22-.61-.33-1.04-.33-.37,0-.68.07-.93.21s-.45.32-.6.55c-.15.23-.26.49-.32.78-.06.29-.1.6-.1.91,0,.29.03.57.1.85.07.27.17.52.32.73.15.21.34.38.57.51.23.13.51.19.84.19.51,0,.91-.13,1.19-.4.29-.27.46-.64.53-1.13h1.05c-.11.78-.4,1.37-.87,1.79-.46.42-1.1.63-1.89.63-.48,0-.9-.08-1.26-.23-.37-.15-.67-.37-.92-.65s-.43-.62-.56-1.01c-.12-.39-.19-.82-.19-1.29s.06-.91.18-1.31c.12-.41.3-.76.55-1.06s.56-.54.93-.71c.37-.17.8-.26,1.3-.26.35,0,.69.04,1,.13.31.08.59.22.82.39.24.18.43.4.59.67.15.27.25.59.29.96h-1.07c-.08-.4-.25-.7-.51-.92"/>
        <path class="st1" d="M237.84,307.5c.1.29.24.54.42.74.18.2.39.35.62.45.24.1.49.16.76.16s.52-.05.76-.16c.24-.1.45-.26.62-.45.18-.2.32-.44.42-.74.1-.29.15-.63.15-1.01s-.05-.72-.15-1.01c-.1-.29-.24-.54-.42-.74-.18-.2-.39-.35-.62-.46-.24-.1-.49-.16-.76-.16s-.52.05-.76.16c-.24.1-.45.26-.62.46-.18.2-.32.45-.42.74-.1.29-.15.63-.15,1.01s.05.72.15,1.01M236.79,305.2c.13-.4.32-.75.58-1.04s.58-.53.96-.7.82-.25,1.31-.25.94.08,1.31.25c.38.17.69.4.95.7.26.29.45.64.58,1.04s.19.83.19,1.29-.07.89-.19,1.28c-.13.4-.32.74-.58,1.03s-.57.52-.95.69-.81.25-1.31.25-.93-.08-1.31-.25-.7-.4-.96-.69c-.26-.29-.45-.64-.58-1.03-.13-.4-.19-.82-.19-1.28s.06-.89.19-1.29"/>
      </g>
    </g>
    <g>
      <path d="M109.49,213.24h37.95v7.97h-28.72v13.81h26.58v7.53h-26.58v15.43h29.24v7.97h-38.47v-52.72h0Z"/>
      <path d="M155.79,213.24h9.23v20.97h24v-20.97h9.23v52.72h-9.23v-23.78h-24v23.78h-9.23v-52.72h0Z"/>
      <path d="M208.73,213.24h9.23v30.72c0,1.77.09,3.57.26,5.39.17,1.82.66,3.46,1.48,4.91.81,1.45,2.04,2.65,3.69,3.58,1.65.94,3.97,1.4,6.98,1.4s5.33-.47,6.98-1.4,2.88-2.13,3.69-3.58,1.3-3.09,1.48-4.91c.17-1.82.26-3.62.26-5.39v-30.72h9.23v33.74c0,3.4-.52,6.35-1.55,8.86-1.03,2.51-2.5,4.62-4.39,6.31-1.9,1.7-4.17,2.97-6.83,3.8s-5.61,1.25-8.86,1.25-6.2-.42-8.86-1.25-4.94-2.1-6.83-3.8c-1.9-1.7-3.36-3.8-4.39-6.31s-1.55-5.46-1.55-8.86v-33.74h-.02Z"/>
    </g>
    <g class="st2">
      <path class="st1" d="M144.56,161.62l.11,24.21c0,2.7.56,3,3.31,3.02,16.19.11,32.38-.28,48.56-1.35,2.07-.14,2.67-.91,2.8-3.16l1.83-33.44c.08-1.54.64-2.41,1.28-2.58,3.33-2.19,25.26-6.95,36.32-8.92,4.69-.91,6.11-3.38,8.29-11.14l1.48-5.24c.48-1.45,2.08-2.13,3.72-2.51l21-1.42c1.53-.04,2.14-1.2,2.1-3.17l-.47-53.36c0-1.02-.69-1.41-2.06-1.45-10.04-.28-19.34-2.77-25.6-7.52-1.72-1.3-5.25-2.08-8.87-2.47-1.91-.22-4.46.35-5.18.45-7-.28-12.67-.54-19.68-.82-1.46.17-1.93,1.02-2.03,2.37l-.02,14.01c.04,1.19,1.31,1.45,4.76,1.92,7-.21,11.27,1.08,16.21,2.4,1,.27,1.71.94,1.89,2.09.44,2.76,1.01,4.97,1.09,7.64.09,2.64-.33,5.33-.24,7.97.02.71-.54,1.07-1.28,1.1-3.5.17-6.84-.09-10.05-.74-1.32-.27-1.44-1.01-1.73-2.57-.39-2.18-.97-3.58-1.57-5.67-.11-.37-.3-.53-.61-.54l-10.34-.09c-1.47-.01-2.23,3.21-2.25,5.03-.59,4.35-.3,14.14-.07,22.33-.02,1.29-.14,1.5,1.35,1.62l8.98.7c1.77.15,2.32,1.26,2.37,2.25l.31,6.25c.12,1.35-.52,2.05-1.77,2.22-6.9.61-13.66,1.01-20.89.76-.88.02-1.37-.71-1.42-1.76l-.14-8.51c-.07-1.43-.06-2.09-1.34-2.36-5.83-1.24-11.58-2.78-17.48-3.35-1.2-.11-2.66-.43-3.87-.49-2.56-.12-4.87.54-7.54.71-1.2.15-1.62.45-1.76,1.24-.5,5.71-.16,13.22.43,15.21.33,1.21.52,1.35,1.7,1.44,2.71.2,5.77.9,8.48,1.01,1.04.04,1.27.89,1.24,2.08l-.49,20.71c-.03,1.26-1.17,1.84-2.36,1.87-2.12.04-4.16.56-6.28.63-1.35.04-2.06-.92-2.4-2.13-.76-2.65-1.57-4.88-2.09-7.58-.32-1.66-1.82-2.27-4.6-2.59l-16.55-1.91c-1.24-.37-1.88-.79-2.06-1.79l-.44-5.74c-.14-.84-.26-1.92.18-2.55.93-.93,5.68-2.54,8.51-3.65,1.19-.46,1.02-1.21.94-2.21-.05-4.55-1.48-9.98-2.71-14.83-.62-2.45-.42-2.49-2.88-2.57-1.05-.09-2.35-.12-3.4-.2-3.46-.28-5.85-.12-9.19-.88-.79-.09-2.21-1.62-1.93-2.52l5.32-15.9c.4-1.21.71-1.44,2.07-1.25l5.33.75c.82.11,1.44.96,1.6,1.94l.81,5.18c.16,1-.19,1.39,1.41,1.45l13.2.43c.98.03,1.31-.76,1.44-1.42.51-2.49,1.05-4.98,1.55-7.47.4-1.98.44-3,.47-5.02.03-2.79.07-5.54.11-8.32.02-1.47-.96-1.62-2.23-2.23-4.76-2.32-16.36-4.39-24.66-5.81-.98-.17-2.65-.04-3.63-.2-1.14-.19-1.54-1.85-1.77-2.38l-2.46-5.64c-.43-.99-.94-1.97-3.34-2.1-12.33-.63-24.58-1.09-36.44-.77-2.06.05-2.26.84-2.26,3.4l.03,71.82c0,1.63.54,3.89,2.51,3.92l24.49.39c.91,0,1.22.69,1.26,1.44.31,5.99,1.73,11.26,2.59,17.2.46,3.18,1.51,7.84,4.43,8.16l21.92,2.42c1.97.22,2.68.66,2.69,2.57"/>
    </g>
  </g>
  <g id="Capa_2">
    <polygon class="st13" points=".04 .04 .04 359.81 359.96 359.96 359.96 .04 .04 .04"/>
    <g>
      <g>
        <polygon points="114.53 288.25 114.53 289.22 109.72 289.22 109.72 291.95 114.2 291.95 114.2 292.93 109.72 292.93 109.72 295.9 114.56 295.9 114.56 296.87 108.57 296.87 108.57 288.25 114.53 288.25"/>
        <g>
          <path d="M119.55,296.87v-.99h-.03c-.22.39-.49.67-.83.85-.34.19-.73.27-1.19.27-.41,0-.75-.05-1.02-.17-.27-.11-.49-.26-.66-.47s-.29-.44-.35-.72c-.07-.28-.11-.58-.11-.93v-4.11h1.02v4.22c0,.39.11.69.34.92.23.23.54.34.93.34.31,0,.58-.04.81-.14.23-.1.42-.23.57-.41.15-.18.26-.38.34-.62.08-.24.11-.49.11-.78v-3.52h1.02v6.24h-.96Z"/>
          <path d="M122.41,295.48c.1.16.22.28.38.37s.34.16.53.19c.19.04.4.06.61.06.16,0,.33,0,.5-.04s.34-.07.49-.13c.15-.06.27-.16.37-.28s.14-.28.14-.48c0-.26-.1-.47-.3-.6-.2-.14-.45-.25-.75-.34s-.63-.16-.98-.23c-.35-.07-.68-.17-.98-.29-.3-.12-.56-.3-.75-.53-.2-.22-.3-.54-.3-.95,0-.31.07-.58.21-.81.14-.23.32-.41.55-.55.22-.14.47-.25.75-.31.27-.07.56-.11.83-.11.35,0,.68.03.98.09.3.06.57.17.79.32.23.15.42.35.55.6.13.26.21.57.24.95h-1.02c-.02-.2-.07-.37-.16-.5s-.2-.24-.34-.32c-.14-.08-.29-.14-.45-.18-.17-.04-.34-.05-.5-.05-.15,0-.31,0-.47.04s-.3.07-.43.12c-.13.06-.23.14-.31.24s-.12.23-.12.39c0,.18.06.33.19.44s.28.21.48.29.41.14.65.19c.24.05.49.11.72.17.26.05.51.12.75.2.25.08.46.19.65.32.19.13.34.3.46.5s.18.45.18.75c0,.38-.08.69-.24.95-.16.25-.36.45-.62.6-.26.15-.54.26-.86.32-.32.06-.64.09-.95.09-.34,0-.67-.04-.99-.11-.31-.07-.59-.19-.83-.35-.24-.17-.43-.38-.58-.65-.14-.27-.22-.6-.24-.98h1.02c0,.22.06.42.16.57"/>
        </g>
        <polygon points="128.32 288.25 128.32 293.36 131.16 290.63 132.54 290.63 130.06 292.9 132.71 296.87 131.42 296.87 129.28 293.62 128.32 294.51 128.32 296.87 127.28 296.87 127.28 288.25 128.32 288.25"/>
        <path d="M136.92,293.65c-.13.1-.3.17-.5.21-.21.04-.43.08-.65.11-.23.03-.46.06-.7.1-.24.04-.44.1-.63.18-.19.08-.34.19-.45.34-.11.15-.18.35-.18.61,0,.17.04.31.11.42s.16.21.26.28c.11.07.24.12.38.16.14.04.3.04.46.04.34,0,.63-.04.87-.14s.44-.21.59-.34c.15-.14.26-.29.34-.46s.11-.32.11-.46v-1.04h0ZM138.59,296.85c-.18.11-.42.16-.73.16-.26,0-.48-.07-.64-.22-.16-.15-.24-.39-.24-.73-.28.34-.61.58-.98.73s-.78.22-1.21.22c-.28,0-.55-.04-.8-.1-.26-.06-.48-.17-.65-.3-.19-.13-.34-.32-.44-.54s-.16-.49-.16-.8c0-.35.06-.64.18-.87.12-.22.28-.41.48-.55.19-.14.42-.25.68-.32.26-.07.51-.13.78-.19.28-.05.55-.1.8-.12.26-.03.48-.07.67-.12.19-.05.34-.13.46-.23.11-.1.17-.25.17-.44,0-.22-.04-.41-.12-.55-.09-.13-.19-.24-.33-.31-.13-.07-.28-.12-.45-.14-.17-.03-.33-.04-.49-.04-.43,0-.79.08-1.09.25s-.45.48-.47.94h-1.02c.02-.39.1-.72.24-.98s.34-.48.58-.64.52-.28.83-.35.64-.11,1-.11c.28,0,.57.02.84.06s.53.12.75.25c.22.12.41.3.54.52.14.22.2.52.2.88v3.21c0,.24.02.42.04.53s.12.17.28.17c.09,0,.19-.02.31-.04v.79-.02Z"/>
        <rect x="139.16" y="288.25" width="1.02" height="8.62"/>
        <polygon points="145.58 288.25 145.58 291.95 150.12 291.95 150.12 288.25 151.27 288.25 151.27 296.87 150.12 296.87 150.12 292.93 145.58 292.93 145.58 296.87 144.44 296.87 144.44 288.25 145.58 288.25"/>
        <g>
          <path d="M156.72,292.47c-.09-.22-.21-.41-.37-.57s-.34-.28-.56-.37c-.21-.1-.45-.14-.71-.14s-.5.04-.72.14c-.21.09-.4.22-.55.38s-.27.34-.36.57-.14.44-.16.68h3.59c-.02-.24-.07-.47-.17-.69M156.97,296.48c-.47.35-1.05.53-1.77.53-.5,0-.93-.08-1.3-.24-.36-.16-.67-.39-.93-.67-.25-.29-.43-.64-.57-1.03-.12-.41-.19-.84-.21-1.32,0-.48.07-.91.22-1.31.14-.4.34-.73.61-1.02.26-.29.57-.51.93-.68.36-.16.75-.24,1.17-.24.56,0,1.02.11,1.39.34.36.23.66.52.88.87s.37.74.46,1.16.11.81.11,1.19h-4.67c0,.27.03.53.1.78s.19.46.35.65c.16.19.36.34.62.45.25.11.55.17.88.17.43,0,.79-.1,1.07-.3.27-.2.46-.5.55-.92h1.02c-.14.7-.44,1.23-.91,1.58"/>
          <path d="M159.53,290.63v1.32h.03c.25-.5.56-.88.92-1.12.36-.24.82-.35,1.38-.34v1.09c-.41,0-.76.05-1.05.17s-.52.27-.7.49-.31.48-.39.79-.12.66-.12,1.07v2.77h-1.02v-6.24h.96Z"/>
          <path d="M163.11,290.63v1.32h.03c.25-.5.56-.88.92-1.12.36-.24.82-.35,1.38-.34v1.09c-.41,0-.76.05-1.05.17s-.52.27-.7.49-.31.48-.39.79-.12.66-.12,1.07v2.77h-1.02v-6.24h.96Z"/>
        </g>
        <path d="M165.83,296.87h1.02v-6.24h-1.02v6.24ZM165.83,289.51h1.02v-1.25h-1.02v1.25Z"/>
        <polygon points="169.1 288.25 169.1 293.36 171.95 290.63 173.33 290.63 170.85 292.9 173.5 296.87 172.2 296.87 170.07 293.62 169.1 294.51 169.1 296.87 168.07 296.87 168.07 288.25 169.1 288.25"/>
        <g>
          <path d="M174.74,294.76c.1.29.24.54.42.73s.38.34.62.45.49.16.75.16.51-.05.75-.16.44-.26.62-.45.32-.44.42-.73.15-.63.15-1.01-.05-.72-.15-1.01-.24-.54-.42-.74-.39-.35-.62-.46c-.24-.11-.49-.16-.75-.16s-.52.05-.75.16c-.24.11-.44.26-.62.46-.18.2-.32.45-.42.74s-.15.63-.15,1.01.05.72.15,1.01M173.7,292.48c.13-.4.32-.74.58-1.03.26-.29.57-.53.95-.7.38-.17.81-.26,1.31-.26s.94.09,1.31.26.69.4.95.7c.26.29.45.64.58,1.03.13.4.19.83.19,1.29s-.06.88-.19,1.28-.32.74-.58,1.03c-.26.29-.57.52-.95.69-.37.17-.81.25-1.31.25s-.93-.08-1.31-.25-.7-.4-.95-.69c-.26-.29-.45-.64-.58-1.03-.13-.4-.19-.82-.19-1.28s.06-.88.19-1.29"/>
          <path d="M189.43,296.24c-.59.55-1.42.83-2.51.83s-1.98-.26-2.61-.79c-.63-.53-.94-1.37-.94-2.52v-5.5h1.15v5.5c0,.77.2,1.36.62,1.76.41.4,1,.6,1.78.6.73,0,1.29-.2,1.67-.6.38-.4.57-.98.57-1.76v-5.5h1.15v5.5c0,1.1-.29,1.93-.88,2.48"/>
          <path d="M192.5,290.63v.99h.03c.42-.76,1.1-1.13,2.03-1.13.41,0,.75.05,1.02.17s.49.26.66.47.29.44.35.72c.07.27.11.58.11.92v4.11h-1.02v-4.22c0-.39-.11-.69-.34-.92-.23-.23-.54-.34-.93-.34-.31,0-.58.04-.81.14-.23.1-.42.23-.57.41-.15.18-.26.38-.34.62-.08.24-.11.49-.11.78v3.52h-1.02v-6.24h.96v.02Z"/>
        </g>
        <path d="M197.87,296.87h1.02v-6.24h-1.02v6.24ZM197.87,289.51h1.02v-1.25h-1.02v1.25Z"/>
        <g>
          <path d="M204.81,292.85c-.08-.27-.19-.53-.35-.74s-.36-.39-.6-.52c-.25-.13-.53-.19-.87-.19s-.64.07-.88.2c-.24.14-.44.32-.59.54s-.26.48-.34.75-.11.57-.11.86c0,.31.04.6.11.88s.19.54.34.75c.16.22.36.39.61.53.25.13.55.2.91.2s.65-.07.88-.2c.24-.13.43-.32.57-.54.14-.23.25-.49.31-.78.06-.29.1-.58.1-.89,0-.29-.04-.57-.11-.85M201.12,288.25v3.22h.03c.17-.34.43-.6.79-.75.36-.16.76-.24,1.19-.24.49,0,.9.09,1.26.26.36.18.65.42.89.72.24.3.42.65.54,1.04.12.4.19.81.19,1.25s-.06.87-.18,1.25c-.11.4-.29.74-.53,1.03-.24.29-.54.53-.89.7-.36.17-.78.26-1.25.26-.15,0-.33-.02-.51-.04-.19-.04-.38-.09-.57-.16s-.36-.17-.53-.3c-.17-.12-.3-.28-.42-.47h-.03v.83h-1.02v-8.62h1.02Z"/>
          <path d="M210.95,292.47c-.09-.22-.21-.41-.37-.57s-.34-.28-.56-.37c-.21-.1-.45-.14-.71-.14s-.5.04-.72.14c-.21.09-.4.22-.55.38s-.27.34-.36.57-.14.44-.16.68h3.59c-.02-.24-.07-.47-.17-.69M211.2,296.48c-.47.35-1.05.53-1.77.53-.5,0-.93-.08-1.3-.24-.36-.16-.67-.39-.93-.67-.25-.29-.43-.64-.57-1.03-.12-.41-.19-.84-.21-1.32,0-.48.07-.91.22-1.31.14-.4.34-.73.61-1.02.26-.29.57-.51.93-.68.36-.16.75-.24,1.17-.24.56,0,1.02.11,1.39.34.36.23.66.52.88.87s.37.74.46,1.16.11.81.11,1.19h-4.67c0,.27.03.53.1.78s.19.46.35.65c.16.19.36.34.62.45.25.11.54.17.88.17.43,0,.79-.1,1.07-.3.27-.2.46-.5.55-.92h1.02c-.14.7-.44,1.23-.91,1.58"/>
          <path d="M213.76,290.63v1.32h.03c.25-.5.56-.88.92-1.12.36-.24.82-.35,1.38-.34v1.09c-.41,0-.76.05-1.05.17s-.52.27-.7.49-.31.48-.39.79-.12.66-.12,1.07v2.77h-1.02v-6.24h.96Z"/>
          <path d="M219.08,290.63v.91h-1.25v3.88c0,.12,0,.22.03.29s.06.13.11.17c.05.04.13.07.24.08.1,0,.23.02.39.02h.47v.91h-.79c-.26,0-.49-.02-.68-.05s-.34-.11-.46-.2c-.11-.1-.2-.23-.26-.41-.05-.18-.09-.41-.09-.7v-3.97h-1.06v-.91h1.06v-1.87h1.02v1.87h1.25Z"/>
          <path d="M220.56,295.48c.1.16.22.28.38.37s.34.16.53.19c.19.04.4.06.61.06.16,0,.33,0,.5-.04.18-.03.34-.07.49-.13s.27-.16.37-.28.14-.28.14-.48c0-.26-.1-.47-.3-.6-.2-.14-.45-.25-.75-.34-.3-.09-.63-.16-.98-.23-.35-.07-.68-.17-.98-.29-.3-.12-.56-.3-.75-.53-.2-.22-.3-.54-.3-.95,0-.31.07-.58.21-.81s.32-.41.55-.55c.22-.14.47-.25.75-.31.27-.07.56-.11.83-.11.35,0,.68.03.98.09s.57.17.79.32c.23.15.42.35.55.6.14.26.22.57.24.95h-1.02c-.02-.2-.07-.37-.16-.5-.09-.13-.2-.24-.34-.32-.14-.08-.29-.14-.45-.18-.17-.04-.34-.05-.5-.05-.15,0-.31,0-.47.04s-.3.07-.43.12c-.13.06-.23.14-.31.24-.08.1-.12.23-.12.39,0,.18.06.33.19.44s.28.21.48.29c.19.08.41.14.65.19.24.05.49.11.72.17.26.05.51.12.75.2s.46.19.65.32c.19.13.34.3.46.5s.18.45.18.75c0,.38-.08.69-.24.95-.16.25-.36.45-.62.6-.26.15-.54.26-.86.32-.32.06-.64.09-.95.09-.34,0-.68-.04-.99-.11-.31-.07-.59-.19-.83-.35-.24-.17-.43-.38-.58-.65-.14-.27-.23-.6-.24-.98h1.02c0,.22.06.42.16.57"/>
        </g>
        <path d="M225.44,296.87h1.02v-6.24h-1.02v6.24ZM225.44,289.51h1.02v-1.25h-1.02v1.25Z"/>
        <g>
          <path d="M230.3,290.63v.91h-1.25v3.88c0,.12,0,.22.03.29s.06.13.11.17c.05.04.13.07.24.08.1,0,.23.02.39.02h.47v.91h-.79c-.26,0-.49-.02-.68-.05s-.34-.11-.46-.2c-.11-.1-.2-.23-.26-.41-.05-.18-.09-.41-.09-.7v-3.97h-1.06v-.91h1.06v-1.87h1.02v1.87h1.25Z"/>
          <path d="M234.86,293.65c-.13.1-.3.17-.5.21-.21.04-.43.08-.65.11-.23.03-.46.06-.7.1-.23.04-.44.1-.63.18-.19.08-.34.19-.45.34-.11.15-.18.35-.18.61,0,.17.04.31.11.42s.16.21.26.28c.11.07.24.12.38.16.14.04.3.04.46.04.34,0,.63-.04.87-.14.24-.09.44-.21.59-.34.15-.14.26-.29.34-.46s.11-.32.11-.46v-1.04h0ZM236.53,296.85c-.18.11-.42.16-.73.16-.26,0-.48-.07-.64-.22-.16-.15-.24-.39-.24-.73-.28.34-.61.58-.98.73-.37.15-.78.22-1.21.22-.28,0-.55-.04-.8-.1-.26-.06-.48-.17-.66-.3s-.34-.32-.44-.54-.17-.49-.17-.8c0-.35.06-.64.19-.87s.28-.41.48-.55c.19-.14.42-.25.67-.32.26-.07.51-.13.78-.19.28-.05.55-.1.8-.12.26-.03.48-.07.67-.12s.34-.13.46-.23c.11-.1.17-.25.17-.44,0-.22-.04-.41-.12-.55-.09-.13-.19-.24-.33-.31-.13-.07-.28-.12-.45-.14-.17-.03-.33-.04-.49-.04-.43,0-.79.08-1.09.25s-.45.48-.47.94h-1.02c.02-.39.1-.72.24-.98s.34-.48.58-.64c.24-.17.52-.28.83-.35s.64-.11,1-.11c.28,0,.57.02.84.06s.53.12.75.25c.22.12.41.3.54.52.14.22.2.52.2.88v3.21c0,.24.02.42.04.53s.12.17.28.17c.09,0,.19-.02.31-.04v.79-.02Z"/>
          <path d="M239.71,290.63v.91h-1.25v3.88c0,.12,0,.22.03.29s.06.13.11.17c.05.04.13.07.24.08.1,0,.23.02.39.02h.47v.91h-.79c-.26,0-.49-.02-.68-.05s-.34-.11-.46-.2c-.11-.1-.2-.23-.26-.41s-.09-.41-.09-.7v-3.97h-1.06v-.91h1.06v-1.87h1.02v1.87h1.25Z"/>
          <path d="M244.58,292.47c-.09-.22-.21-.41-.37-.57s-.34-.28-.56-.37c-.21-.1-.45-.14-.71-.14s-.5.04-.72.14c-.21.09-.4.22-.55.38s-.27.34-.36.57-.14.44-.16.68h3.59c-.02-.24-.07-.47-.17-.69M244.83,296.48c-.47.35-1.05.53-1.77.53-.5,0-.93-.08-1.3-.24-.36-.16-.67-.39-.93-.67-.25-.29-.43-.64-.57-1.03-.12-.41-.19-.84-.21-1.32,0-.48.07-.91.22-1.31.14-.4.34-.73.61-1.02.26-.29.57-.51.93-.68.36-.16.75-.24,1.17-.24.56,0,1.02.11,1.39.34.36.23.66.52.88.87s.37.74.46,1.16c.09.42.11.81.11,1.19h-4.67c0,.27.03.53.1.78s.19.46.35.65c.16.19.36.34.62.45.25.11.54.17.88.17.43,0,.79-.1,1.07-.3.27-.2.46-.5.55-.92h1.02c-.14.7-.44,1.23-.91,1.58"/>
          <path d="M250.32,293.65c-.13.1-.3.17-.5.21-.21.04-.43.08-.65.11-.23.03-.46.06-.7.1-.23.04-.44.1-.63.18-.19.08-.34.19-.45.34s-.18.35-.18.61c0,.17.04.31.11.42s.16.21.26.28c.11.07.24.12.38.16.14.04.3.04.46.04.34,0,.63-.04.87-.14.24-.09.44-.21.59-.34.15-.14.26-.29.34-.46.07-.17.11-.32.11-.46v-1.04h0ZM251.99,296.85c-.18.11-.42.16-.73.16-.26,0-.48-.07-.64-.22s-.24-.39-.24-.73c-.28.34-.61.58-.98.73-.37.15-.78.22-1.21.22-.28,0-.55-.04-.8-.1-.26-.06-.48-.17-.66-.3s-.34-.32-.44-.54-.17-.49-.17-.8c0-.35.06-.64.19-.87.12-.22.28-.41.48-.55s.42-.25.67-.32c.26-.07.51-.13.78-.19.28-.05.55-.1.8-.12.26-.03.48-.07.67-.12s.34-.13.46-.23c.11-.1.17-.25.17-.44,0-.22-.04-.41-.12-.55-.09-.13-.19-.24-.33-.31-.13-.07-.28-.12-.45-.14-.17-.03-.33-.04-.49-.04-.43,0-.79.08-1.09.25-.29.17-.45.48-.47.94h-1.02c.02-.39.1-.72.24-.98s.34-.48.58-.64c.24-.17.52-.28.83-.35s.64-.11,1-.11c.28,0,.57.02.84.06s.53.12.75.25c.22.12.41.3.54.52.14.22.2.52.2.88v3.21c0,.24.02.42.04.53s.12.17.28.17c.09,0,.19-.02.31-.04v.79-.02Z"/>
          <path d="M114.57,308.84c-.58.55-1.42.83-2.51.83s-1.98-.26-2.61-.79c-.63-.53-.94-1.37-.94-2.52v-5.5h1.15v5.5c0,.77.2,1.36.62,1.76.41.4,1,.6,1.78.6.73,0,1.29-.2,1.67-.6.38-.4.57-.98.57-1.76v-5.5h1.15v5.5c0,1.1-.29,1.93-.88,2.48"/>
          <path d="M117.65,303.23v.99h.03c.42-.76,1.1-1.13,2.03-1.13.41,0,.75.05,1.02.17.27.11.49.26.66.47s.29.44.35.72c.07.27.11.58.11.92v4.11h-1.02v-4.22c0-.39-.11-.69-.34-.92-.23-.23-.54-.34-.93-.34-.31,0-.58.04-.81.14-.23.1-.42.23-.57.41-.15.18-.26.38-.34.62-.08.24-.11.49-.11.78v3.52h-1.02v-6.24h.96v.02Z"/>
        </g>
        <path d="M123.03,309.48h1.02v-6.24h-1.02v6.24ZM123.03,302.11h1.02v-1.25h-1.02v1.25Z"/>
        <polygon points="129.23 303.23 127.53 308.44 127.5 308.44 125.75 303.23 124.61 303.23 126.93 309.48 128.02 309.48 130.3 303.23 129.23 303.23"/>
        <g>
          <path d="M134.98,305.07c-.1-.22-.22-.41-.37-.57-.16-.16-.34-.28-.56-.37-.21-.1-.45-.14-.71-.14s-.5.04-.72.14c-.21.09-.4.22-.55.38s-.27.34-.36.57c-.09.21-.14.44-.16.68h3.59c-.02-.24-.07-.47-.16-.69M135.23,309.08c-.47.35-1.05.53-1.77.53-.5,0-.93-.08-1.3-.24-.36-.16-.67-.39-.93-.67-.25-.29-.43-.64-.57-1.03-.12-.41-.19-.84-.21-1.32,0-.48.07-.91.22-1.31.14-.4.34-.73.61-1.02.26-.29.57-.51.93-.67.36-.16.75-.24,1.17-.24.56,0,1.02.11,1.39.34.36.23.66.52.88.87s.37.74.46,1.16.11.81.11,1.19h-4.67c0,.27.03.53.1.78s.19.46.35.65c.16.19.36.34.62.45.25.11.54.17.88.17.43,0,.79-.1,1.07-.3.27-.2.46-.5.55-.92h1.02c-.14.7-.44,1.23-.91,1.58"/>
          <path d="M137.78,303.23v1.32h.03c.25-.5.56-.88.92-1.12.36-.24.82-.35,1.38-.34v1.09c-.41,0-.76.05-1.05.17s-.52.27-.7.49-.31.48-.39.79-.12.66-.12,1.07v2.77h-1.02v-6.24h.96Z"/>
          <path d="M141.23,308.08c.1.16.22.28.38.37s.34.16.53.19c.19.04.4.06.61.06.16,0,.33,0,.5-.04.18-.03.34-.07.49-.13s.27-.16.37-.28.14-.28.14-.48c0-.26-.1-.47-.3-.6-.2-.14-.45-.25-.75-.34-.3-.09-.63-.16-.98-.23-.35-.07-.68-.17-.98-.29-.3-.12-.56-.3-.75-.53-.2-.22-.3-.54-.3-.95,0-.31.07-.58.21-.81s.32-.41.55-.55c.22-.14.47-.25.75-.31s.56-.11.83-.11c.35,0,.68.03.98.09s.57.17.79.32c.23.15.42.35.55.6.13.26.21.57.24.95h-1.02c-.02-.2-.07-.37-.16-.5-.09-.13-.2-.24-.34-.32-.14-.08-.29-.14-.45-.18-.17-.04-.34-.05-.5-.05-.15,0-.31,0-.47.04s-.3.07-.43.12c-.13.06-.23.14-.31.24-.08.1-.12.23-.12.39,0,.18.06.33.19.44s.28.21.48.29c.19.08.41.14.65.19.24.05.49.11.72.17.26.05.51.12.75.2.25.08.46.19.65.32.19.13.34.3.46.5s.18.45.18.75c0,.38-.08.69-.24.95-.16.25-.36.45-.62.6-.26.15-.54.26-.86.32-.32.06-.64.09-.95.09-.34,0-.67-.04-.99-.11-.31-.07-.59-.19-.83-.35-.24-.17-.43-.38-.58-.65-.14-.27-.22-.6-.24-.98h1.02c0,.22.06.42.16.57"/>
        </g>
        <path d="M146.11,309.48h1.02v-6.24h-1.02v6.24ZM146.11,302.11h1.02v-1.25h-1.02v1.25Z"/>
        <g>
          <path d="M149.15,307.26c.08.27.19.53.35.74.16.22.36.39.6.52.25.13.53.19.87.19s.64-.07.88-.2c.24-.14.44-.32.59-.54s.26-.48.34-.75c.07-.28.11-.57.11-.86,0-.31-.04-.6-.11-.88s-.19-.54-.34-.75c-.16-.22-.36-.39-.61-.53-.25-.13-.55-.19-.91-.19s-.64.07-.88.2c-.24.14-.43.32-.58.55-.14.22-.25.49-.31.77-.06.29-.1.58-.1.89,0,.29.04.57.11.85M152.84,309.48v-.85h-.03c-.17.34-.43.6-.79.75-.36.15-.76.23-1.19.23-.49,0-.9-.09-1.26-.26-.36-.18-.65-.42-.89-.72-.24-.3-.42-.64-.54-1.03-.12-.4-.19-.81-.19-1.25s.06-.86.18-1.25c.11-.4.29-.74.53-1.03.24-.29.54-.53.89-.7.36-.18.78-.26,1.25-.26.16,0,.34.02.52.04.19.04.37.09.56.16s.36.18.53.3c.17.12.3.28.42.47h.03v-3.21h1.02v8.62h-1.02Z"/>
          <path d="M158.88,306.26c-.13.1-.3.17-.5.21-.21.04-.43.08-.65.11-.23.03-.46.06-.7.1-.24.04-.44.1-.63.18-.19.08-.34.19-.45.34-.11.15-.18.35-.18.61,0,.17.04.31.11.42s.16.21.26.28c.11.07.24.12.38.16.14.04.3.04.46.04.34,0,.63-.04.87-.14.24-.09.44-.21.59-.34.15-.14.26-.29.34-.46s.11-.32.11-.46v-1.04h0ZM160.54,309.45c-.18.11-.42.16-.73.16-.26,0-.48-.07-.64-.22-.16-.15-.24-.39-.24-.73-.28.34-.61.58-.98.73-.37.15-.78.22-1.21.22-.28,0-.55-.04-.8-.1-.26-.06-.48-.17-.65-.3-.19-.13-.34-.32-.44-.54s-.16-.49-.16-.8c0-.35.06-.64.18-.87.12-.22.28-.41.48-.55.19-.14.42-.25.68-.32.26-.07.51-.13.78-.19.28-.05.55-.1.8-.12s.48-.07.67-.12c.19-.05.34-.13.46-.23.11-.1.17-.25.17-.44,0-.22-.04-.41-.12-.55-.09-.13-.19-.24-.33-.31-.13-.07-.28-.12-.45-.14-.17-.03-.33-.04-.49-.04-.43,0-.79.08-1.09.25s-.45.48-.47.94h-1.02c.02-.39.1-.72.24-.98s.34-.48.58-.64c.24-.17.52-.28.83-.35s.64-.11,1-.11c.28,0,.57.02.84.06.27.04.53.12.75.25.22.12.41.3.55.52.13.22.2.52.2.88v3.21c0,.24.02.42.04.53s.12.17.28.17c.09,0,.19-.02.31-.04v.79l-.02-.02Z"/>
          <path d="M161.92,307.26c.08.27.19.53.35.74.16.22.36.39.6.52.25.13.53.19.87.19s.64-.07.88-.2c.24-.14.44-.32.59-.54s.26-.48.34-.75c.07-.28.11-.57.11-.86,0-.31-.04-.6-.11-.88s-.19-.54-.34-.75c-.16-.22-.36-.39-.61-.53-.25-.13-.55-.19-.91-.19s-.64.07-.88.2c-.24.14-.43.32-.58.55-.14.22-.25.49-.31.77-.06.29-.1.58-.1.89,0,.29.04.57.11.85M165.61,309.48v-.85h-.03c-.17.34-.43.6-.79.75-.36.15-.76.23-1.19.23-.49,0-.9-.09-1.26-.26-.36-.18-.65-.42-.89-.72-.24-.3-.42-.64-.54-1.03-.12-.4-.19-.81-.19-1.25s.06-.86.18-1.25c.11-.4.29-.74.53-1.03.24-.29.54-.53.89-.7.36-.18.78-.26,1.25-.26.16,0,.34.02.52.04.19.04.37.09.56.16.19.08.36.18.53.3.17.12.3.28.42.47h.03v-3.21h1.02v8.62h-1.02Z"/>
          <path d="M171.57,307.26c.08.27.19.53.35.74.16.22.36.39.6.52.25.13.53.19.87.19s.64-.07.88-.2c.24-.14.44-.32.59-.54s.26-.48.34-.75c.07-.28.11-.57.11-.86,0-.31-.04-.6-.11-.88s-.19-.54-.34-.75c-.16-.22-.36-.39-.61-.53-.25-.13-.55-.19-.91-.19s-.64.07-.88.2c-.24.14-.43.32-.58.55-.14.22-.25.49-.31.77-.06.29-.1.58-.1.89,0,.29.04.57.11.85M175.25,309.48v-.85h-.03c-.17.34-.43.6-.79.75-.36.15-.76.23-1.19.23-.49,0-.9-.09-1.26-.26-.36-.18-.65-.42-.89-.72-.24-.3-.42-.64-.54-1.03-.12-.4-.18-.81-.18-1.25s.06-.86.18-1.25c.11-.4.29-.74.53-1.03.24-.29.54-.53.89-.7s.78-.26,1.25-.26c.16,0,.34.02.52.04.19.04.37.09.56.16.19.08.36.18.53.3.17.12.3.28.42.47h.03v-3.21h1.02v8.62h-1.03Z"/>
          <path d="M181.59,305.07c-.1-.22-.22-.41-.37-.57-.16-.16-.34-.28-.56-.37-.21-.1-.45-.14-.71-.14s-.5.04-.72.14c-.21.09-.4.22-.55.38s-.27.34-.36.57c-.09.21-.14.44-.16.68h3.59c-.02-.24-.07-.47-.16-.69M181.84,309.08c-.47.35-1.05.53-1.77.53-.5,0-.93-.08-1.3-.24-.36-.16-.67-.39-.93-.67-.25-.29-.43-.64-.57-1.03-.12-.41-.19-.84-.21-1.32,0-.48.07-.91.22-1.31.14-.4.34-.73.61-1.02.26-.29.57-.51.93-.67.36-.16.75-.24,1.17-.24.56,0,1.02.11,1.39.34.36.23.66.52.88.87s.37.74.46,1.16.12.81.11,1.19h-4.67c0,.27.03.53.1.78s.19.46.35.65c.16.19.36.34.62.45.25.11.54.17.88.17.43,0,.79-.1,1.07-.3.27-.2.46-.5.55-.92h1.02c-.14.7-.44,1.23-.91,1.58"/>
        </g>
        <rect x="183.54" y="300.86" width="1.02" height="8.62"/>
        <g>
          <path d="M192.2,304.99c.65,0,1.13-.12,1.43-.4s.45-.67.45-1.18-.15-.91-.45-1.17-.78-.41-1.43-.41h-2.24v3.16h2.24ZM192.59,300.86c.87,0,1.53.22,1.97.67.45.45.67,1.07.67,1.87s-.22,1.43-.67,1.88-1.1.67-1.97.66h-2.63v3.52h-1.15v-8.62h3.78Z"/>
          <path d="M199.89,306.26c-.13.1-.3.17-.5.21-.21.04-.43.08-.65.11-.23.03-.46.06-.7.1s-.44.1-.63.18c-.19.08-.34.19-.45.34-.11.15-.18.35-.18.61,0,.17.04.31.11.42s.16.21.26.28c.11.07.24.12.38.16.14.04.3.04.46.04.34,0,.63-.04.87-.14.24-.09.44-.21.59-.34.15-.14.26-.29.34-.46s.11-.32.11-.46v-1.04h0ZM201.56,309.45c-.18.11-.42.16-.73.16-.26,0-.48-.07-.64-.22-.16-.15-.24-.39-.24-.73-.28.34-.61.58-.98.73-.37.15-.78.22-1.21.22-.28,0-.55-.04-.8-.1-.26-.06-.48-.17-.66-.3s-.34-.32-.44-.54-.17-.49-.17-.8c0-.35.06-.64.19-.87s.28-.41.48-.55c.19-.14.42-.25.67-.32.26-.07.51-.13.78-.19.28-.05.55-.1.8-.12.26-.03.48-.07.67-.12.19-.05.34-.13.46-.23.11-.1.17-.25.17-.44,0-.22-.04-.41-.12-.55-.09-.13-.19-.24-.33-.31-.13-.07-.28-.12-.45-.14-.17-.03-.33-.04-.49-.04-.43,0-.79.08-1.09.25s-.45.48-.47.94h-1.02c.02-.39.1-.72.24-.98s.34-.48.58-.64c.24-.17.52-.28.83-.35s.64-.11,1-.11c.28,0,.57.02.84.06.27.04.53.12.75.25.22.12.41.3.54.52.14.22.2.52.2.88v3.21c0,.24.02.42.04.53s.12.17.28.17c.09,0,.19-.02.31-.04v.79-.02Z"/>
        </g>
        <path d="M202.14,309.48h1.02v-6.24h-1.02v6.24ZM203.07,300.19l-1.16,1.95h.77l1.7-1.95h-1.32,0Z"/>
        <path d="M205.11,308.08c.1.16.22.28.38.37s.34.16.53.19c.19.04.4.06.61.06.16,0,.33,0,.5-.04s.34-.07.49-.13.27-.16.37-.28.14-.28.14-.48c0-.26-.1-.47-.3-.6-.2-.14-.45-.25-.75-.34-.3-.09-.63-.16-.98-.23-.35-.07-.68-.17-.98-.29s-.56-.3-.75-.53c-.2-.22-.3-.54-.3-.95,0-.31.07-.58.21-.81s.32-.41.55-.55c.22-.14.47-.25.75-.31s.56-.11.83-.11c.35,0,.68.03.98.09s.57.17.79.32c.23.15.42.35.55.6.14.26.22.57.24.95h-1.02c-.02-.2-.07-.37-.16-.5-.09-.13-.2-.24-.34-.32-.14-.08-.29-.14-.45-.18-.17-.04-.34-.05-.5-.05-.15,0-.31,0-.47.04s-.3.07-.43.12c-.13.06-.23.14-.31.24-.08.1-.12.23-.12.39,0,.18.06.33.19.44s.28.21.48.29c.19.08.41.14.65.19.24.05.49.11.72.17.26.05.51.12.75.2.25.08.46.19.65.32.19.13.34.3.46.5s.18.45.18.75c0,.38-.08.69-.24.95-.16.25-.36.45-.62.6-.26.15-.54.26-.86.32-.32.06-.64.09-.95.09-.34,0-.68-.04-.99-.11-.31-.07-.59-.19-.83-.35-.24-.17-.43-.38-.58-.65-.14-.27-.23-.6-.24-.98h1.02c0,.22.06.42.16.57"/>
        <polygon points="218.28 300.86 215.79 308.33 215.76 308.33 213.3 300.86 212.07 300.86 215.1 309.48 216.4 309.48 219.47 300.86 218.28 300.86"/>
        <g>
          <path d="M222.98,306.26c-.13.1-.3.17-.5.21-.21.04-.43.08-.65.11-.23.03-.46.06-.7.1-.23.04-.44.1-.63.18-.19.08-.34.19-.45.34-.11.15-.18.35-.18.61,0,.17.04.31.11.42s.16.21.26.28c.11.07.24.12.38.16.14.04.3.04.46.04.34,0,.63-.04.87-.14.24-.09.44-.21.59-.34.15-.14.26-.29.34-.46s.11-.32.11-.46v-1.04h0ZM224.65,309.45c-.18.11-.42.16-.73.16-.26,0-.48-.07-.64-.22-.16-.15-.24-.39-.24-.73-.28.34-.61.58-.98.73-.37.15-.78.22-1.21.22-.28,0-.55-.04-.8-.1-.26-.06-.48-.17-.66-.3s-.34-.32-.44-.54-.17-.49-.17-.8c0-.35.06-.64.19-.87s.28-.41.48-.55c.19-.14.42-.25.67-.32.26-.07.51-.13.78-.19.28-.05.55-.1.8-.12.26-.03.48-.07.67-.12.19-.05.34-.13.46-.23.11-.1.17-.25.17-.44,0-.22-.04-.41-.12-.55-.09-.13-.19-.24-.33-.31-.13-.07-.28-.12-.45-.14-.17-.03-.33-.04-.49-.04-.43,0-.79.08-1.09.25s-.45.48-.47.94h-1.02c.02-.39.1-.72.24-.98s.34-.48.58-.64c.24-.17.52-.28.83-.35s.64-.11,1-.11c.28,0,.57.02.84.06.27.04.53.12.75.25.22.12.41.3.54.52.14.22.2.52.2.88v3.21c0,.24.02.42.04.53s.12.17.28.17c.09,0,.19-.02.31-.04v.79-.02Z"/>
          <path d="M225.95,308.08c.1.16.22.28.38.37s.34.16.53.19c.19.04.4.06.61.06.16,0,.33,0,.5-.04s.34-.07.49-.13.27-.16.37-.28.14-.28.14-.48c0-.26-.1-.47-.3-.6-.2-.14-.45-.25-.75-.34-.3-.09-.63-.16-.98-.23-.35-.07-.68-.17-.98-.29-.3-.12-.56-.3-.75-.53-.2-.22-.3-.54-.3-.95,0-.31.07-.58.21-.81s.32-.41.55-.55c.22-.14.47-.25.75-.31s.56-.11.83-.11c.35,0,.68.03.98.09s.56.17.79.32c.23.15.42.35.55.6.14.26.22.57.24.95h-1.02c-.02-.2-.07-.37-.16-.5-.09-.13-.2-.24-.34-.32-.14-.08-.29-.14-.45-.18-.17-.04-.34-.05-.5-.05-.15,0-.31,0-.47.04s-.3.07-.43.12c-.13.06-.23.14-.31.24-.08.1-.12.23-.12.39,0,.18.06.33.19.44s.28.21.48.29c.19.08.41.14.65.19.24.05.49.11.72.17.26.05.51.12.75.2s.46.19.65.32c.19.13.34.3.46.5s.18.45.18.75c0,.38-.08.69-.24.95-.16.25-.36.45-.62.6-.26.15-.54.26-.86.32-.32.06-.64.09-.95.09-.34,0-.68-.04-.99-.11-.31-.07-.59-.19-.83-.35-.24-.17-.43-.38-.58-.65-.14-.27-.23-.6-.24-.98h1.02c0,.22.06.42.16.57"/>
          <path d="M234.49,304.32c-.26-.22-.6-.33-1.03-.33-.37,0-.68.07-.93.2-.25.14-.45.32-.6.55s-.26.49-.32.78c-.06.29-.1.6-.1.91,0,.29.04.57.11.85s.18.52.32.73.34.38.57.51.51.19.83.19c.5,0,.9-.13,1.19-.4.28-.26.46-.64.52-1.12h1.05c-.11.77-.4,1.37-.87,1.78-.46.42-1.1.63-1.89.63-.48,0-.89-.08-1.26-.23s-.67-.37-.92-.65c-.25-.28-.43-.62-.56-1.01s-.19-.82-.19-1.29.06-.9.18-1.31c.12-.41.3-.76.55-1.06.25-.3.56-.54.93-.72s.8-.26,1.29-.26c.35,0,.69.04,1,.12.31.09.58.21.82.39.24.18.43.4.58.67.15.26.25.59.29.96h-1.06c-.08-.4-.25-.7-.5-.92"/>
          <path d="M237.72,307.37c.1.29.24.54.42.73s.38.34.62.45.49.16.75.16.52-.05.75-.16c.24-.11.44-.26.62-.45s.32-.44.42-.73.15-.63.15-1.01-.05-.72-.15-1.01c-.1-.29-.24-.54-.42-.74s-.38-.35-.62-.46-.49-.16-.75-.16-.52.05-.75.16-.44.26-.62.46c-.18.2-.32.45-.42.74s-.15.63-.15,1.01.05.72.15,1.01M236.67,305.08c.13-.4.32-.74.58-1.03.26-.29.57-.53.95-.7.38-.17.81-.26,1.31-.26s.94.09,1.31.26.69.4.95.7c.26.29.45.64.58,1.03.12.4.19.83.19,1.29s-.06.88-.19,1.28-.33.74-.58,1.03c-.26.29-.57.52-.95.69-.37.17-.81.25-1.31.25s-.93-.08-1.31-.25-.7-.4-.95-.69c-.26-.29-.45-.64-.58-1.03-.13-.4-.19-.82-.19-1.28s.06-.88.19-1.29"/>
        </g>
      </g>
      <g>
        <path d="M109.7,213.35h37.86v7.95h-28.65v13.77h26.52v7.51h-26.52v15.4h29.17v7.95h-38.37v-52.59.02Z"/>
        <path d="M155.87,213.35h9.2v20.92h23.94v-20.92h9.2v52.59h-9.2v-23.72h-23.94v23.72h-9.2v-52.59Z"/>
        <path d="M208.68,213.35h9.2v30.64c0,1.77.09,3.56.26,5.38.17,1.82.66,3.45,1.48,4.89.81,1.45,2.04,2.64,3.68,3.57,1.64.94,3.97,1.4,6.96,1.4s5.32-.47,6.96-1.4c1.64-.94,2.87-2.12,3.68-3.57s1.3-3.08,1.48-4.89c.17-1.82.26-3.61.26-5.38v-30.64h9.2v33.66c0,3.39-.51,6.33-1.55,8.84s-2.49,4.6-4.38,6.3c-1.89,1.7-4.16,2.96-6.81,3.79s-5.6,1.25-8.84,1.25-6.18-.42-8.84-1.25-4.92-2.1-6.81-3.79c-1.89-1.7-3.35-3.79-4.38-6.3-1.03-2.5-1.55-5.45-1.55-8.84v-33.66h0Z"/>
      </g>
      <path d="M144.67,161.87l.11,24.15c0,2.69.56,2.99,3.3,3.01,16.15.11,32.29-.27,48.44-1.35,2.07-.13,2.67-.9,2.79-3.15l1.82-33.36c.08-1.53.64-2.4,1.28-2.57,3.32-2.18,25.19-6.92,36.23-8.9,4.68-.9,6.09-3.37,8.27-11.11l1.48-5.23c.48-1.44,2.08-2.13,3.71-2.5l20.94-1.42c1.53-.04,2.14-1.19,2.09-3.16l-.47-53.22c0-1.02-.69-1.41-2.05-1.45-10.01-.28-19.29-2.76-25.54-7.5-1.71-1.3-5.24-2.07-8.84-2.46-1.91-.22-4.45.34-5.17.45-6.99-.27-12.64-.54-19.63-.82-1.46.18-1.93,1.02-2.02,2.37l-.03,13.97c.04,1.18,1.31,1.44,4.74,1.92,6.99-.21,11.24,1.08,16.17,2.39,1,.26,1.7.94,1.89,2.08.44,2.76,1.01,4.96,1.09,7.62.09,2.63-.33,5.32-.24,7.95.03.72-.54,1.07-1.28,1.1-3.49.17-6.82-.09-10.03-.73-1.32-.26-1.43-1.01-1.72-2.56-.39-2.17-.97-3.57-1.56-5.66-.11-.37-.3-.53-.61-.53l-10.32-.09c-1.47,0-2.22,3.21-2.25,5.02-.58,4.34-.29,14.11-.07,22.27-.02,1.28-.14,1.49,1.35,1.61l8.96.71c1.78.15,2.31,1.26,2.37,2.24l.31,6.24c.11,1.34-.51,2.04-1.77,2.21-6.89.61-13.63,1.01-20.84.75-.87.02-1.36-.71-1.41-1.76l-.13-8.49c-.07-1.42-.06-2.08-1.33-2.36-5.81-1.24-11.54-2.77-17.44-3.34-1.2-.11-2.65-.43-3.86-.49-2.55-.12-4.86.54-7.53.72-1.2.15-1.62.45-1.76,1.25-.49,5.7-.16,13.19.43,15.17.33,1.21.51,1.35,1.7,1.43,2.7.19,5.76.89,8.46,1.01,1.03.04,1.26.88,1.24,2.08l-.49,20.66c-.03,1.25-1.17,1.84-2.35,1.86-2.12.04-4.15.57-6.27.63-1.34.04-2.05-.92-2.39-2.12-.75-2.64-1.56-4.87-2.08-7.56-.32-1.66-1.82-2.26-4.58-2.58l-16.51-1.91c-1.24-.37-1.88-.79-2.05-1.78l-.44-5.72c-.14-.84-.26-1.92.18-2.53.94-.93,5.66-2.53,8.5-3.64,1.19-.46,1.02-1.21.95-2.21-.05-4.53-1.48-9.95-2.7-14.79-.62-2.44-.42-2.49-2.88-2.57-1.05-.09-2.35-.11-3.4-.2-3.45-.27-5.84-.11-9.16-.88-.79-.09-2.2-1.62-1.93-2.52l5.31-15.86c.41-1.2.71-1.44,2.06-1.25l5.32.75c.81.11,1.44.95,1.59,1.93l.81,5.17c.16,1-.19,1.39,1.4,1.44l13.16.43c.98.04,1.31-.76,1.44-1.41.5-2.48,1.04-4.97,1.55-7.45.4-1.97.44-2.99.47-5,.04-2.78.07-5.53.11-8.3.02-1.47-.95-1.62-2.22-2.23-4.75-2.31-16.31-4.38-24.6-5.79-.98-.17-2.64-.04-3.62-.2-1.14-.19-1.54-1.85-1.77-2.38l-2.46-5.63c-.43-.99-.94-1.97-3.33-2.09-12.3-.63-24.52-1.09-36.35-.77-2.06.05-2.25.84-2.25,3.4l.03,71.63c0,1.63.54,3.88,2.51,3.91l24.42.39c.91.02,1.22.69,1.25,1.44.31,5.97,1.73,11.23,2.59,17.16.46,3.18,1.5,7.82,4.42,8.13l21.86,2.41c1.96.22,2.67.65,2.68,2.56"/>
    </g>
  </g>
</svg>